<svg width="174" height="14" viewBox="0 0 174 14" fill="none" xmlns="http://www.w3.org/2000/svg">
<path d="M24.9651 0.799973V9.64997L15.0051 0.659973V13.32H16.6651V4.60997L26.6151 13.61V0.799973H24.9651Z" fill="#34643B"/>
<path d="M39.605 0.799973V9.64997L29.645 0.659973V13.32H31.305V4.60997L41.265 13.61V0.799973H39.605Z" fill="#34643B"/>
<path d="M64.455 6.74997L57.915 0.659973V13.32H59.565V4.46997L64.455 9.01997L69.345 4.46997V13.32H71.005V0.659973L64.455 6.74997Z" fill="#34643B"/>
<path d="M49.5751 0.5L43.175 13.32H45.035L46.405 10.58H52.755L54.125 13.32H55.985L49.5751 0.5ZM47.385 8.82L49.5751 4.44L51.775 8.82H47.3951H47.385Z" fill="#34643B"/>
<path d="M6.6749 0.5L0.274902 13.32H2.1349L3.5049 10.58H9.8549L11.2249 13.32H13.0849L6.6749 0.5ZM4.3349 8.91L6.6749 4.23L9.0249 8.91H4.3449H4.3349Z" fill="#34643B"/>
<path d="M136.595 0.660015L136.575 0.640015V13.33H138.255V4.49001L143.125 9.03001L143.135 9.04001L148.015 4.49001V13.33H149.685V0.640015L143.135 6.74001L136.595 0.660015Z" fill="#34643B"/>
<path d="M103.365 1.03001C101.335 0.17001 98.5052 0.36001 96.4252 2.49001C95.4852 3.45001 94.5352 4.89001 94.5352 7.05001C94.5352 11.05 97.7852 12.79 98.5152 13.1C99.4952 13.52 100.375 13.57 100.975 13.57C104.635 13.57 107.395 10.35 107.395 7.03001C107.395 2.67001 103.465 1.07001 103.365 1.03001ZM105.745 7.03001C105.745 9.04001 104.125 11.88 100.895 11.91C98.3551 11.91 96.1852 9.70001 96.1852 7.05001C96.1852 4.40001 98.2252 2.22001 100.985 2.21001C103.415 2.22001 105.745 4.27001 105.745 7.03001Z" fill="#34643B"/>
<path d="M119.255 7.72999C119.255 10.24 117.155 11.96 115.235 11.96H115.195C112.985 11.96 111.105 10.04 111.105 7.72999V0.799988H109.445V7.72999C109.445 10.52 111.655 13.64 115.235 13.64C118.035 13.64 120.915 11.2 120.915 7.72999V0.799988H119.255V7.72999Z" fill="#34643B"/>
<path d="M87.2451 8.57001H90.8351V10.36C90.5251 10.7 90.1651 10.98 89.7551 11.24C88.3351 12.13 85.9351 12.39 84.0551 10.5C81.8151 8.24001 82.8051 5.61001 82.9551 5.24001C83.2251 4.59001 84.0851 3.20001 85.5751 2.57001C86.1351 2.33001 86.7351 2.22001 87.4151 2.21001C89.0751 2.21001 90.0551 3.02001 90.5851 3.50001L91.8451 2.44001C91.6251 2.22001 90.8851 1.50001 89.7751 1.03001C87.7551 0.17001 84.9151 0.36001 82.8351 2.49001C79.9951 5.40001 81.1151 8.80001 81.4251 9.55001C81.9051 10.69 83.6751 13.57 87.3851 13.57C90.3551 13.57 92.0551 11.49 92.4551 10.97V6.91001H87.2251V8.57001H87.2451Z" fill="#34643B"/>
<path d="M161.495 11.65H154.375V7.84999H160.455V6.17999V6.16999H154.375V2.47999H161.165L161.175 0.809988V0.799988H152.695V13.33H161.495V11.66V11.65Z" fill="#34643B"/>
<path d="M163.175 0.799988V2.47999H167.745V13.33H169.425V2.47999H173.995V0.799988H163.175Z" fill="#34643B"/>
<path d="M134.045 4.92999C134.045 2.85999 132.405 0.799988 129.645 0.799988H123.595V13.32H125.255V2.43999H129.545C132.425 2.43999 132.975 5.27999 131.575 6.69999C130.665 7.61999 128.775 7.49999 127.475 7.49999L132.035 13.32H134.075L130.625 8.81999C133.535 8.61999 134.045 5.75999 134.045 4.93999V4.92999Z" fill="#34643B"/>
</svg>
