<svg width="232" height="26" viewBox="0 0 232 26" fill="none" xmlns="http://www.w3.org/2000/svg">
<path d="M0.915039 1.57002C0.915039 1.22002 1.23504 0.900024 1.58504 0.900024H5.76504C6.15504 0.900024 6.43504 1.22002 6.43504 1.57002V10.43H16.485V1.57002C16.485 1.22002 16.765 0.900024 17.155 0.900024H21.335C21.685 0.900024 22.005 1.22002 22.005 1.57002V24.84C22.005 25.19 21.685 25.51 21.335 25.51H17.155C16.765 25.51 16.485 25.19 16.485 24.84V15.6H6.43504V24.84C6.43504 25.19 6.15504 25.51 5.76504 25.51H1.58504C1.23504 25.51 0.915039 25.19 0.915039 24.84V1.57002Z" fill="#34643B"/>
<path d="M30.855 1.57002C30.855 1.22002 31.135 0.900024 31.525 0.900024H46.075C46.465 0.900024 46.745 1.22002 46.745 1.57002V5.40002C46.745 5.75002 46.465 6.07002 46.075 6.07002H36.335V10.43H44.345C44.695 10.43 45.015 10.75 45.015 11.1V14.93C45.015 15.32 44.695 15.6 44.345 15.6H36.335V20.34H46.075C46.465 20.34 46.745 20.66 46.745 21.01V24.84C46.745 25.19 46.465 25.51 46.075 25.51H31.525C31.135 25.51 30.855 25.19 30.855 24.84V1.57002Z" fill="#34643B"/>
<path d="M51.385 24.59L62.385 0.939989C62.495 0.729989 62.735 0.549988 62.985 0.549988H63.335C63.585 0.549988 63.825 0.729989 63.935 0.939989L74.935 24.59C75.145 25.05 74.865 25.5 74.335 25.5H70.435C69.805 25.5 69.525 25.29 69.205 24.62L67.935 21.84H58.375L57.105 24.65C56.925 25.07 56.545 25.49 55.835 25.49H51.965C51.435 25.49 51.155 25.03 51.365 24.58L51.385 24.59ZM65.825 17.07L63.155 11.27H63.115L60.475 17.07H65.815H65.825Z" fill="#34643B"/>
<path d="M81.325 1.57002C81.325 1.22002 81.6049 0.900024 81.9949 0.900024H86.1749C86.5249 0.900024 86.8449 1.22002 86.8449 1.57002V20.34H95.2049C95.5949 20.34 95.8749 20.66 95.8749 21.01V24.84C95.8749 25.19 95.5949 25.51 95.2049 25.51H81.9949C81.6049 25.51 81.325 25.19 81.325 24.84V1.57002Z" fill="#34643B"/>
<path d="M105.225 6.06001H100.195C99.8049 6.06001 99.5249 5.74001 99.5249 5.39001V1.56001C99.5249 1.21001 99.8049 0.890015 100.195 0.890015H115.795C116.185 0.890015 116.465 1.21001 116.465 1.56001V5.39001C116.465 5.74001 116.185 6.06001 115.795 6.06001H110.765V24.83C110.765 25.18 110.445 25.5 110.095 25.5H105.875C105.525 25.5 105.205 25.18 105.205 24.83V6.06001H105.225Z" fill="#34643B"/>
<path d="M123.505 1.57002C123.505 1.22002 123.825 0.900024 124.175 0.900024H128.355C128.745 0.900024 129.025 1.22002 129.025 1.57002V10.43H139.075V1.57002C139.075 1.22002 139.355 0.900024 139.745 0.900024H143.925C144.275 0.900024 144.595 1.22002 144.595 1.57002V24.84C144.595 25.19 144.275 25.51 143.925 25.51H139.745C139.355 25.51 139.075 25.19 139.075 24.84V15.6H129.025V24.84C129.025 25.19 128.745 25.51 128.355 25.51H124.175C123.825 25.51 123.505 25.19 123.505 24.84V1.57002Z" fill="#34643B"/>
<path d="M165.675 1.57002C165.675 1.22002 165.955 0.900024 166.345 0.900024H170.525C170.875 0.900024 171.195 1.22002 171.195 1.57002V20.34H179.555C179.945 20.34 180.225 20.66 180.225 21.01V24.84C180.225 25.19 179.945 25.51 179.555 25.51H166.345C165.955 25.51 165.675 25.19 165.675 24.84V1.57002Z" fill="#34643B"/>
<path d="M184.445 24.59L195.445 0.939989C195.555 0.729989 195.795 0.549988 196.045 0.549988H196.395C196.645 0.549988 196.885 0.729989 196.995 0.939989L207.995 24.59C208.205 25.05 207.925 25.5 207.395 25.5H203.495C202.865 25.5 202.585 25.29 202.265 24.62L200.995 21.84H191.435L190.165 24.65C189.985 25.07 189.605 25.49 188.895 25.49H185.025C184.495 25.49 184.215 25.03 184.425 24.58L184.445 24.59ZM198.895 17.07L196.225 11.27H196.195L193.555 17.07H198.895Z" fill="#34643B"/>
<path d="M214.045 1.57002C214.045 1.22002 214.325 0.900024 214.715 0.900024H222.905C227.055 0.900024 230.465 3.75003 230.465 7.44003C230.465 10.15 228.045 12.11 226.385 12.99C228.245 13.76 231.095 15.49 231.095 18.72C231.095 22.66 227.615 25.5 223.435 25.5H214.715C214.325 25.5 214.045 25.18 214.045 24.83V1.56002V1.57002ZM222.265 10.88C223.605 10.88 224.725 9.76002 224.725 8.35002C224.725 6.94002 223.605 5.96002 222.265 5.96002H219.525V10.88H222.265ZM222.725 20.47C224.095 20.47 225.255 19.35 225.255 17.9C225.255 16.45 223.745 15.44 222.375 15.44H219.525V20.47H222.725Z" fill="#34643B"/>
</svg>
