<svg width="39" height="43" viewBox="0 0 39 43" fill="none" xmlns="http://www.w3.org/2000/svg">
<path d="M25.0526 10.6V40.76L13.8626 29.57L2.67261 40.76V10.6C2.67261 10.05 3.12261 9.59998 3.67261 9.59998H24.0626C24.6126 9.59998 25.0626 10.05 25.0626 10.6H25.0526Z" stroke="#F2EDD9" stroke-width="4" stroke-linecap="round" stroke-linejoin="round"/>
<path d="M13.2295 9.34047C14.6451 0.22148 21.7308 2.14036 25.0966 4.23967C37.505 -1.21507 37.7273 8.76794 36.2873 14.4413C33.1991 17.6163 26.6374 23.8309 25.0966 23.2896C23.1707 22.613 12.0845 14.5454 13.2295 9.34047Z" fill="#F2EDD9"/>
<path d="M29.6658 3.9892C30.6858 3.9892 31.6658 4.2092 32.5758 4.7292C34.5258 5.8492 35.4958 7.5692 35.5558 9.7992C35.5858 10.9692 35.2858 12.0592 34.7958 13.1092C34.7558 13.1892 34.2058 14.1592 34.1758 14.2192C33.9358 14.5792 33.6758 14.9292 33.3958 15.2592C32.6558 16.1592 31.8158 16.9692 30.9258 17.7392C29.2158 19.1992 27.3658 20.4592 25.4158 21.5792C25.2958 21.6492 25.1758 21.6792 25.0658 21.6792C24.9558 21.6792 24.8258 21.6392 24.7058 21.5692C22.2858 20.1692 20.0158 18.5792 18.0058 16.6292C17.5958 16.2292 17.1958 15.8092 16.8358 15.3792C16.5358 15.0292 16.2558 14.6492 16.0058 14.2592C15.9458 14.1692 15.4258 13.3692 15.4258 13.3692C15.2358 12.8592 15.0258 12.3892 14.8858 11.8992C14.3158 9.9792 14.4558 8.1392 15.6158 6.4592C16.6458 4.9592 18.1158 4.1792 19.9258 4.0092C20.1558 3.9892 20.3758 3.9792 20.6058 3.9792C21.3558 3.9792 22.0958 4.1092 22.8058 4.3992C23.6958 4.7592 24.4058 5.3392 24.9458 6.1292C24.9858 6.1792 25.0158 6.2392 25.0658 6.3092C25.1358 6.2192 25.1858 6.1392 25.2358 6.0692C26.1158 4.8492 27.3358 4.1992 28.8158 4.0292C29.1058 3.9992 29.3858 3.9792 29.6658 3.9792M29.6658 0.989197C29.2758 0.989197 28.8858 1.0092 28.4858 1.0592C27.2158 1.1992 26.0658 1.5892 25.0658 2.2092C24.7058 1.9892 24.3358 1.7992 23.9358 1.6392C22.8958 1.2092 21.7758 0.989197 20.5958 0.989197C20.2858 0.989197 19.9658 1.0092 19.6358 1.0392C16.9058 1.2892 14.6558 2.5792 13.1458 4.7592C11.5358 7.0892 11.1358 9.8592 12.0058 12.7692C12.1358 13.2192 12.3058 13.6392 12.4558 14.0192C12.5058 14.1592 12.5658 14.2992 12.6158 14.4392C12.6958 14.6392 12.7858 14.8392 12.9058 15.0192C12.9058 15.0192 13.4458 15.8392 13.5058 15.9392C13.7958 16.3792 14.1358 16.8392 14.5358 17.3192C14.9458 17.8092 15.3958 18.2992 15.9158 18.7992C17.9058 20.7292 20.2858 22.4892 23.1958 24.1792C23.7758 24.5192 24.4058 24.6892 25.0658 24.6892C25.7258 24.6892 26.3358 24.5192 26.9158 24.1792C29.1558 22.8892 31.1058 21.5292 32.8758 20.0192C34.0358 19.0192 34.9458 18.1092 35.7258 17.1492C36.0458 16.7592 36.3658 16.3292 36.6658 15.8992C36.6858 15.8792 36.6958 15.8492 36.7158 15.8292C36.8058 15.6892 37.4058 14.6192 37.5058 14.4192C38.2658 12.7792 38.6058 11.2592 38.5658 9.7192C38.4758 6.3792 36.9258 3.7592 34.0758 2.1292C32.7558 1.3792 31.2758 0.989197 29.6758 0.989197L29.6658 0.989197Z" fill="#966F41"/>
</svg>
