<svg width="176" height="175" viewBox="0 0 176 175" fill="none" xmlns="http://www.w3.org/2000/svg">
<path d="M157.336 34.3108C144.326 17.3928 127.309 6.42374 106.381 2.06264C80.2358 -3.38552 56.2562 1.95993 34.9643 18.0904C17.8495 31.0539 7.05588 48.2671 2.48935 69.2809C1.68475 72.9914 1.36805 76.8047 0.824516 80.5752C0.734641 81.1787 0.614807 81.7821 0.507812 82.3898V92.6399C0.95291 95.9482 1.25677 99.2864 1.86878 102.565C6.76485 128.766 20.7212 148.791 43.3869 162.679C55.0707 169.839 67.8758 173.75 81.5626 174.718C82.0077 174.752 82.4399 174.902 82.8807 175H93.1351C96.4519 174.551 99.7901 174.225 103.086 173.639C123.26 170.048 140.144 160.504 153.694 145.174C166.05 131.192 173.257 114.818 175.042 96.2692C177.241 73.3766 171.387 52.5769 157.336 34.3108ZM88.0935 161.412C47.4142 161.523 14.263 128.47 14.1004 87.6411C13.9335 46.9319 47.2002 13.6138 88.0122 13.618C128.79 13.618 161.864 46.6751 161.92 87.4742C161.971 128.201 128.918 161.3 88.0935 161.412Z" fill="#DBC093"/>
<path d="M128.139 67.1966C123.346 72.4565 118.57 77.7334 113.785 83.0018C103.603 94.2149 93.4475 105.454 83.1932 116.602C82.0547 117.844 80.4755 118.943 78.892 119.453C76.4482 120.24 74.1928 119.286 72.3824 117.45C64.1952 109.13 55.978 100.836 47.8293 92.4773C44.9148 89.4857 44.9362 85.4199 47.6924 82.7065C50.4614 79.9846 54.5058 80.0317 57.4631 82.9976C63.6217 89.1604 69.7076 95.3961 75.8105 101.615C76.2428 102.06 76.5766 102.603 77.0731 103.245C84.109 95.4988 90.8069 88.129 97.5047 80.755C104.395 73.1669 111.286 65.5789 118.172 57.9865C120.123 55.8338 122.473 54.8238 125.366 55.6198C128.092 56.3688 129.719 58.2348 130.249 60.9867C130.72 63.4261 129.757 65.4248 128.139 67.1966Z" fill="#DBC093"/>
</svg>
