<svg width="266" height="168" viewBox="0 0 266 168" fill="none" xmlns="http://www.w3.org/2000/svg">
<g clip-path="url(#clip0_12_6741)">
<path d="M152.146 137.5C153.986 146.95 151.416 154.55 143.416 159.65C136.606 163.99 129.316 163.99 122.506 159.64C114.516 154.53 111.946 146.93 113.796 137.48C113.146 137.48 112.546 137.48 111.946 137.48C103.726 137.48 95.5057 137.48 87.2857 137.47C75.1457 137.44 66.0256 128.18 66.3656 116.05C66.5356 109.97 69.1756 105 73.7956 101.05C81.8556 94.1701 86.0056 85.4401 86.1257 74.8201C86.1856 69.0101 85.9656 63.1801 86.4056 57.4001C87.3056 45.5101 92.4356 35.5501 101.126 27.4401C107.886 21.1301 115.896 17.3101 124.966 15.6501C125.166 15.6101 125.366 15.5701 125.776 15.4901C125.776 12.9501 125.746 10.4001 125.776 7.85014C125.826 4.58014 127.676 1.98014 130.566 0.990136C135.356 -0.649863 140.026 2.67014 140.146 7.83014C140.196 10.3401 140.146 12.8401 140.146 15.3201C142.906 16.0801 145.606 16.6701 148.206 17.5501C167.086 23.9201 179.786 41.6801 179.786 61.6201C179.786 66.2301 179.706 70.8301 179.806 75.4401C180.036 85.7501 184.186 94.2301 191.986 100.95C198.226 106.33 200.816 113.13 199.096 121.18C197.376 129.22 192.266 134.44 184.356 136.71C182.326 137.29 180.126 137.45 177.996 137.47C169.986 137.56 161.976 137.5 153.966 137.5C153.396 137.5 152.836 137.5 152.126 137.5H152.146ZM132.996 123.08C148.176 123.08 163.356 123.08 178.536 123.08C181.666 123.08 183.906 121.6 184.896 118.93C185.836 116.4 184.996 113.85 182.616 111.83C175.536 105.83 170.596 98.4101 167.706 89.5901C165.656 83.3201 165.386 76.8801 165.456 70.3701C165.496 66.0801 165.716 61.7401 165.156 57.5101C162.726 39.1101 145.636 26.7101 127.346 29.8501C112.716 32.3601 101.506 44.6601 100.666 59.4201C100.356 64.9001 100.616 70.4101 100.466 75.9001C100.076 90.2801 94.3756 102.19 83.5456 111.64C81.0556 113.81 80.1257 116.21 81.0257 118.82C81.9657 121.56 84.2957 123.08 87.6257 123.08C102.756 123.08 117.876 123.08 133.006 123.08H132.996ZM138.386 142.82C138.366 139.86 135.906 137.46 132.936 137.5C129.936 137.54 127.566 139.93 127.566 142.91C127.566 145.94 130.066 148.38 133.096 148.32C136.056 148.26 138.406 145.82 138.386 142.82Z" fill="#D7B987"/>
<path d="M49.9259 138.44C52.7959 141.31 52.7959 145.96 49.9259 148.83L32.9859 165.77C30.1159 168.64 25.4659 168.64 22.5959 165.77C19.7259 162.9 19.7259 158.25 22.5959 155.38L39.5359 138.44C42.4059 135.57 47.0559 135.57 49.9259 138.44Z" fill="#D7B987"/>
<path d="M36.5354 114.34C37.8654 115.67 38.6854 117.51 38.6854 119.54C38.6854 123.6 35.3954 126.89 31.3354 126.89H7.37539C3.31539 126.89 0.0253906 123.6 0.0253906 119.54C0.0253906 115.48 3.31539 112.19 7.37539 112.19H31.3354C33.3654 112.19 35.2054 113.01 36.5354 114.34Z" fill="#D7B987"/>
<path d="M32.9859 73.2902L49.9259 90.2302C52.7959 93.1002 52.7959 97.7502 49.9259 100.62C47.0559 103.49 42.4059 103.49 39.5359 100.62L22.5959 83.6802C19.7259 80.8102 19.7259 76.1602 22.5959 73.2902C25.4659 70.4202 30.1159 70.4202 32.9859 73.2902Z" fill="#D7B987"/>
<path d="M216.066 100.63C213.196 97.76 213.196 93.11 216.066 90.24L233.006 73.3C235.876 70.43 240.526 70.43 243.396 73.3C246.266 76.17 246.266 80.82 243.396 83.69L226.456 100.63C223.586 103.5 218.936 103.5 216.066 100.63Z" fill="#D7B987"/>
<path d="M229.465 124.73C228.135 123.4 227.315 121.56 227.315 119.53C227.315 115.47 230.605 112.18 234.665 112.18H258.625C262.685 112.18 265.975 115.47 265.975 119.53C265.975 123.59 262.685 126.88 258.625 126.88H234.665C232.635 126.88 230.795 126.06 229.465 124.73Z" fill="#D7B987"/>
<path d="M233.015 165.78L216.075 148.84C213.205 145.97 213.205 141.32 216.075 138.45C218.945 135.58 223.595 135.58 226.465 138.45L243.405 155.39C246.275 158.26 246.275 162.91 243.405 165.78C240.535 168.65 235.885 168.65 233.015 165.78Z" fill="#D7B987"/>
</g>
<defs>
<clipPath id="clip0_12_6741">
<rect width="265.95" height="167.36" fill="white" transform="translate(0.0253906 0.570068)"/>
</clipPath>
</defs>
</svg>
