<svg width="25" height="25" viewBox="0 0 25 25" fill="none" xmlns="http://www.w3.org/2000/svg">
<path d="M1.47801 0.838608C1.89994 0.417208 2.47188 0.180511 3.0682 0.180511C3.66452 0.180511 4.23646 0.417208 4.65838 0.838608L12.8193 8.99656L20.9803 0.838608C21.1891 0.629782 21.437 0.464132 21.7099 0.351116C21.9827 0.2381 22.2751 0.179932 22.5705 0.179932C22.8658 0.179932 23.1582 0.2381 23.4311 0.351116C23.7039 0.464132 23.9518 0.629782 24.1607 0.838608C24.3695 1.04743 24.5351 1.29535 24.6481 1.56819C24.7612 1.84104 24.8193 2.13347 24.8193 2.42879C24.8193 2.72412 24.7612 3.01655 24.6481 3.2894C24.5351 3.56224 24.3695 3.81015 24.1607 4.01898L16.0027 12.1799L24.1607 20.3409C24.5824 20.7626 24.8193 21.3346 24.8193 21.9311C24.8193 22.5275 24.5824 23.0995 24.1607 23.5213C23.7389 23.943 23.1669 24.1799 22.5705 24.1799C21.974 24.1799 21.402 23.943 20.9803 23.5213L12.8193 15.3633L4.65838 23.5213C4.23664 23.943 3.66463 24.1799 3.0682 24.1799C2.47176 24.1799 1.89976 23.943 1.47801 23.5213C1.05627 23.0995 0.819336 22.5275 0.819336 21.9311C0.819336 21.3346 1.05627 20.7626 1.47801 20.3409L9.63596 12.1799L1.47801 4.01898C1.05661 3.59705 0.819915 3.02512 0.819915 2.42879C0.819915 1.83247 1.05661 1.26053 1.47801 0.838608Z" fill="#F0EAD7"/>
</svg>
