<svg width="33" height="34" viewBox="0 0 33 34" fill="none" xmlns="http://www.w3.org/2000/svg">
    <g clip-path="url(#clip0_4_707)">
        <path d="M31.74 29.65L25.26 23.17C27.03 20.82 28.08 17.9 28.08 14.74C28.08 6.99995 21.78 0.699951 14.04 0.699951C6.3 0.699951 0 6.99995 0 14.74C0 22.4799 6.3 28.78 14.04 28.78C17.08 28.78 19.9 27.8 22.2 26.15L28.72 32.67C29.14 33.09 29.68 33.2999 30.23 33.2999C30.78 33.2999 31.32 33.09 31.74 32.67C32.57 31.84 32.57 30.48 31.74 29.65ZM4.27 14.74C4.27 9.34995 8.65 4.96995 14.04 4.96995C19.43 4.96995 23.81 9.34995 23.81 14.74C23.81 20.13 19.43 24.51 14.04 24.51C8.65 24.51 4.27 20.13 4.27 14.74Z" fill="#fff"/>
    </g>
    <defs>
        <clipPath id="clip0_4_707">
            <rect width="32.37" height="32.6" fill="white" transform="translate(0 0.699951)"/>
        </clipPath>
    </defs>
</svg>
