<svg width="377" height="434" viewBox="0 0 377 434" fill="none" xmlns="http://www.w3.org/2000/svg">
<g filter="url(#filter0_d_4_700)">
<path d="M336.079 242.959C346.131 232.906 343.421 213.899 330.026 200.504C316.631 187.109 297.623 184.399 287.571 194.451C277.519 204.503 280.229 223.511 293.624 236.906C307.019 250.301 326.026 253.011 336.079 242.959Z" fill="#D7B987"/>
<path d="M332.352 238.191C332.972 238.571 333.982 237.921 334.612 236.741C335.242 235.561 335.262 234.291 334.642 233.911C334.022 233.531 333.012 234.181 332.382 235.361C331.752 236.541 331.732 237.811 332.352 238.191Z" fill="#D0B486"/>
<path d="M332.352 238.191C333.982 238.851 335.252 235.281 334.382 234.341C333.102 234.121 331.062 237.161 332.352 238.191ZM332.352 238.191C330.882 236.931 332.752 232.401 334.902 233.491C336.762 234.761 334.202 238.891 332.352 238.191Z" fill="#F1E2CE"/>
<path d="M336.172 230.951C331.572 232.301 328.392 236.371 328.432 241.201C326.052 236.331 330.872 230.081 336.172 230.951Z" fill="#F1E2CE"/>
<path d="M294.072 222.831C298.342 228.701 303.912 233.411 310.052 237.221C310.922 237.791 311.842 238.281 312.722 238.871C311.722 238.571 310.712 238.241 309.732 237.841C303.002 234.971 296.822 229.741 294.082 222.821L294.072 222.831Z" fill="#F1E2CE"/>
<path d="M290.602 220.641C293.762 229.741 301.232 236.551 309.652 240.821C310.872 241.441 312.132 241.981 313.362 242.631C312.032 242.281 310.692 241.911 309.372 241.471C300.332 238.191 292.002 230.501 290.602 220.651V220.641Z" fill="#F1E2CE"/>
<path d="M336.172 224.161C335.142 218.291 333.062 212.981 329.302 208.381C334.532 211.491 337.232 218.251 336.172 224.161Z" fill="#F1E2CE"/>
<path d="M311.212 195.731C304.692 194.091 298.152 194.701 292.202 197.751C297.052 192.861 305.422 192.081 311.212 195.731Z" fill="#F1E2CE"/>
</g>
<g filter="url(#filter1_d_4_700)">
<path d="M326.431 410.824C338.71 398.545 340.229 380.158 329.826 369.755C319.422 359.351 301.035 360.871 288.757 373.149C276.479 385.427 274.959 403.814 285.363 414.218C295.766 424.621 314.153 423.102 326.431 410.824Z" fill="#D7B987"/>
<path d="M291.272 409.931C290.692 410.261 289.662 409.571 288.982 408.381C288.292 407.191 288.212 405.951 288.792 405.621C289.372 405.291 290.402 405.981 291.082 407.171C291.762 408.361 291.852 409.601 291.272 409.931Z" fill="#D0B486"/>
<path d="M291.272 409.931C289.562 410.501 286.682 406.431 288.532 405.191C290.532 404.201 292.622 408.741 291.272 409.931ZM291.272 409.931C292.512 408.871 290.192 405.951 289.032 406.051C288.362 407.001 289.732 410.471 291.272 409.931Z" fill="#F1E2CE"/>
<path d="M289.112 402.911C293.382 402.301 296.082 407.211 294.242 410.831C293.742 407.281 292.672 404.541 289.112 402.911Z" fill="#F1E2CE"/>
<path d="M327.132 394.281C325.702 401.011 320.492 406.581 314.502 409.691C313.632 410.121 312.722 410.491 311.822 410.831C312.582 410.211 313.382 409.691 314.132 409.091C319.432 405.101 324.022 400.191 327.132 394.281Z" fill="#F1E2CE"/>
<path d="M301.952 368.071C294.422 373.351 288.552 380.621 286.382 389.611C286.462 387.311 286.772 384.941 287.642 382.751C290.052 376.171 295.472 370.671 301.952 368.061V368.071Z" fill="#F1E2CE"/>
<path d="M330.112 391.981C330.522 401.271 323.662 409.601 315.442 413.201C314.252 413.701 313.032 414.121 311.812 414.521C313.392 413.551 315.172 412.601 316.682 411.521C323.482 407.071 328.722 400.101 330.102 391.971L330.112 391.981Z" fill="#F1E2CE"/>
<path d="M285.152 398.501C289.462 398.251 294.382 399.401 296.992 403.211C299.502 406.821 299.522 412.671 295.862 415.441C298.402 412.101 298.052 407.331 295.812 404.031C293.472 400.541 289.112 399.401 285.152 398.511V398.501Z" fill="#F1E2CE"/>
</g>
<path d="M43.2817 49.8808C31.1317 43.4408 17.5317 43.2608 4.51167 47.3808C3.09167 47.8308 1.53166 48.3408 0.37166 49.3108C-0.51834 50.0508 3.81171 53.1608 7.80171 58.2308C12.9817 64.8208 13.2217 68.6408 19.6017 74.7508C26.2617 81.1108 35.2617 83.0408 44.4817 82.3608C52.2017 81.7908 59.9217 78.9408 66.4617 74.8308C67.3617 74.2708 67.5517 73.0408 66.8517 72.2408C65.0417 70.1608 61.6717 66.2708 59.1617 63.2308C55.1417 58.3608 48.8817 52.8508 43.2817 49.8808Z" fill="#D7B987"/>
<path d="M37.4016 50.4207C41.4316 52.6407 44.5516 56.0807 47.5216 59.5107C50.1616 62.7707 52.7716 66.2607 53.7416 70.4107C49.6316 67.0107 44.9416 64.3407 40.1616 61.9007C37.0816 53.8707 24.8516 48.0207 17.0816 46.6207C21.6416 48.4807 25.9716 50.8107 30.1416 53.3807C33.6916 55.6807 37.4116 58.0907 39.7216 61.6907C38.0516 60.8407 36.3816 60.0207 34.7216 59.2007C26.1016 55.2707 17.0116 52.3107 7.67163 50.7107C15.9116 53.1807 24.0216 56.0707 31.8916 59.5307C28.9616 59.3807 25.9616 59.4707 23.1616 58.9607C19.9716 58.2707 15.4816 57.3307 12.3016 56.7907C16.0516 58.7507 20.1416 59.9607 24.3316 60.5607C27.1716 60.7007 29.9916 60.3907 32.7916 59.9307C33.2416 60.1307 33.6916 60.3107 34.1316 60.5107C39.6216 63.2107 45.3716 65.7107 50.6016 68.9807C45.2016 70.2407 39.5316 71.2107 34.0616 70.4607C28.5016 69.3407 23.2016 66.8807 17.9016 64.7707C28.7616 72.1307 38.3816 74.4807 50.6716 69.0307C51.7816 69.7307 52.8616 70.4707 53.9216 71.2507C53.9216 71.2907 53.9416 71.3307 53.9516 71.3707C53.9516 71.3407 53.9516 71.3007 53.9516 71.2707C54.5116 71.6807 55.0716 72.0807 55.6016 72.5207C56.4116 73.3307 57.2216 74.2607 57.4216 75.4407C57.3516 74.2407 56.6116 73.1807 55.8316 72.3008C55.2216 71.7208 54.5816 71.1807 53.9416 70.6407C53.8816 62.5807 44.7516 52.5707 37.4016 50.4707V50.4207Z" fill="#F1E2CE"/>
<path d="M381.322 119.261C390.132 113.631 395.342 104.691 397.492 94.5308C397.722 93.4208 397.972 92.2008 397.762 91.0608C397.602 90.1908 393.922 91.9008 389.072 92.6408C382.772 93.6108 380.152 92.3308 373.712 94.2708C367.002 96.2908 362.362 101.541 359.362 107.891C356.852 113.221 355.852 119.401 356.112 125.261C356.152 126.071 356.892 126.651 357.682 126.491C359.742 126.071 363.572 125.291 366.522 124.771C371.252 123.931 377.242 121.851 381.302 119.251L381.322 119.261Z" fill="#D7B987"/>
<path d="M383.172 115.161C380.192 116.991 376.752 117.781 373.362 118.461C370.212 118.981 366.922 119.411 363.812 118.501C367.602 117.051 371.122 114.951 374.532 112.701C381.002 113.661 389.452 107.761 393.292 103.141C390.362 105.461 387.192 107.461 383.932 109.261C381.082 110.751 378.092 112.311 374.852 112.491C376.032 111.701 377.212 110.911 378.372 110.111C384.202 105.881 389.562 100.961 394.122 95.3808C389.402 99.9108 384.452 104.191 379.222 108.111C380.422 106.221 381.482 104.201 382.872 102.541C384.522 100.691 386.822 98.0708 388.372 96.1708C385.672 97.9208 383.342 100.171 381.382 102.721C380.222 104.551 379.382 106.531 378.632 108.561C378.332 108.781 378.042 109.011 377.742 109.231C373.902 111.851 370.092 114.731 365.972 116.961C367.152 112.911 368.642 108.791 371.182 105.451C374.002 102.191 377.622 99.6008 381.002 96.8808C372.062 101.311 366.912 106.801 365.912 116.981C365.032 117.461 364.132 117.891 363.222 118.301C363.192 118.291 363.162 118.281 363.132 118.271C363.152 118.281 363.182 118.291 363.202 118.311C362.722 118.531 362.242 118.751 361.762 118.941C360.922 119.171 360.002 119.361 359.152 119.051C359.972 119.451 360.952 119.361 361.832 119.181C362.442 118.991 363.042 118.771 363.642 118.551C369.002 121.531 379.042 119.231 383.192 115.151L383.172 115.161Z" fill="#F1E2CE"/>
<path d="M293.472 31.4908C302.282 25.8608 307.492 16.9208 309.642 6.76077C309.872 5.65077 310.122 4.43076 309.912 3.29076C309.752 2.42076 306.072 4.13077 301.222 4.87077C294.922 5.84077 292.302 4.56076 285.862 6.50076C279.152 8.52076 274.512 13.7708 271.512 20.1208C269.002 25.4508 268.002 31.6308 268.262 37.4908C268.302 38.3008 269.042 38.8808 269.832 38.7208C271.892 38.3008 275.722 37.5208 278.672 37.0008C283.402 36.1608 289.392 34.0808 293.452 31.4808L293.472 31.4908Z" fill="#D7B987"/>
<path d="M295.311 27.4008C292.331 29.2308 288.891 30.0208 285.501 30.7008C282.351 31.2208 279.061 31.6508 275.951 30.7408C279.741 29.2908 283.262 27.1908 286.672 24.9408C293.142 25.9008 301.591 20.0008 305.431 15.3808C302.501 17.7008 299.331 19.7008 296.071 21.5008C293.221 22.9908 290.232 24.5508 286.992 24.7308C288.172 23.9408 289.351 23.1508 290.511 22.3508C296.341 18.1208 301.701 13.2008 306.261 7.62079C301.541 12.1508 296.592 16.4308 291.362 20.3508C292.562 18.4608 293.621 16.4408 295.011 14.7808C296.661 12.9308 298.961 10.3108 300.511 8.41078C297.811 10.1608 295.481 12.4108 293.521 14.9608C292.361 16.7908 291.521 18.7708 290.771 20.8008C290.471 21.0208 290.181 21.2508 289.881 21.4708C286.041 24.0908 282.232 26.9708 278.112 29.2008C279.292 25.1508 280.781 21.0308 283.321 17.6908C286.141 14.4308 289.761 11.8408 293.141 9.12079C284.201 13.5508 279.052 19.0408 278.052 29.2208C277.172 29.7008 276.272 30.1308 275.362 30.5408C275.332 30.5308 275.301 30.5208 275.271 30.5108C275.291 30.5208 275.321 30.5308 275.341 30.5508C274.861 30.7708 274.381 30.9908 273.901 31.1808C273.061 31.4108 272.142 31.6008 271.292 31.2908C272.112 31.6908 273.091 31.6008 273.971 31.4208C274.581 31.2308 275.181 31.0108 275.781 30.7908C281.141 33.7708 291.181 31.4708 295.331 27.3908L295.311 27.4008Z" fill="#F1E2CE"/>
<path d="M322.312 339.671C322.402 337.661 322.222 337.051 322.222 337.051C322.222 337.051 324.822 340.001 325.112 338.041C325.402 336.091 323.102 334.571 323.102 334.571C323.102 334.571 324.582 334.961 324.132 333.261C323.682 331.561 313.352 328.811 315.002 326.431C316.642 324.051 328.412 335.421 329.582 333.141C330.652 331.051 328.602 329.741 328.242 329.531C328.892 329.891 334.912 333.231 334.562 329.721C334.192 326.011 325.502 325.161 326.952 323.971C328.402 322.781 340.052 325.661 339.552 323.261C339.062 320.871 335.172 320.631 335.172 320.631C335.172 320.631 340.492 317.191 339.742 316.201C338.982 315.201 336.452 315.431 336.452 315.431C336.452 315.431 338.072 314.851 337.242 313.721C336.412 312.601 329.662 319.711 330.102 316.791C330.542 313.861 334.282 311.701 333.662 310.631C333.042 309.561 329.232 311.601 329.232 311.601L329.162 309.321C329.162 309.321 321.462 317.881 320.672 316.201C319.872 314.521 327.752 311.201 324.952 308.201C322.142 305.191 318.252 313.861 317.012 311.731C315.772 309.591 317.772 305.051 315.772 306.211C313.772 307.371 313.712 310.971 313.712 310.971C313.712 310.971 313.232 307.681 311.952 308.251C310.672 308.811 314.062 312.201 307.442 315.851C303.372 318.101 300.342 319.211 298.602 319.731C301.122 317.041 303.432 314.261 305.482 311.541C307.972 309.491 312.712 305.661 314.912 304.361C317.962 302.541 331.172 303.861 331.922 301.901C332.662 299.941 326.512 298.981 327.072 297.881C327.642 296.771 334.822 297.611 335.172 296.451C335.532 295.301 332.282 294.291 332.282 294.291C332.282 294.291 336.272 292.791 335.482 290.171C334.692 287.561 331.112 290.821 331.112 290.821C331.112 290.821 331.852 289.421 330.842 287.861C329.832 286.311 327.142 290.651 327.142 290.651C327.142 290.651 327.852 288.351 326.522 288.301C325.202 288.241 318.992 293.411 317.982 291.861C316.962 290.311 332.062 285.781 331.862 284.621C331.662 283.471 330.632 284.141 330.632 284.141C330.632 284.141 332.452 281.841 331.822 279.491C331.202 277.131 325.332 283.371 324.662 281.781C323.992 280.191 330.702 276.911 330.022 275.331C329.352 273.741 328.002 277.581 327.152 276.291C326.312 275.001 328.692 271.041 327.252 270.521C325.802 269.991 323.752 274.471 323.752 274.471C323.752 274.471 323.602 271.431 321.942 270.861C320.282 270.291 320.682 278.511 319.052 278.281C317.432 278.051 318.772 271.091 316.882 271.031C315.002 270.971 316.612 272.861 316.092 273.761C315.572 274.661 315.072 272.771 314.132 273.571C313.182 274.371 315.282 288.301 312.962 289.261C310.642 290.221 314.292 279.731 312.592 278.261C310.892 276.791 311.402 281.241 310.552 281.061C309.692 280.881 307.722 272.221 305.742 273.151C303.762 274.071 306.322 275.721 305.662 277.251C305.002 278.791 303.242 274.961 301.692 275.981C300.142 277.001 306.272 280.171 305.442 282.561C304.612 284.951 301.072 278.421 300.042 279.091C299.012 279.761 301.072 284.321 301.072 284.321C301.072 284.321 299.372 282.851 298.332 284.641C297.292 286.431 302.112 288.441 304.732 297.231C307.352 306.021 302.312 310.431 302.312 310.431L302.372 310.521C299.602 314.111 296.412 317.781 292.852 321.121C292.892 318.431 292.432 314.661 292.612 309.311C292.902 300.581 299.152 298.751 297.952 297.301C296.762 295.861 292.752 301.561 296.562 296.141C300.382 290.721 295.572 291.371 294.112 293.461C293.142 294.851 295.722 288.251 294.422 287.221C293.112 286.191 292.192 292.611 289.442 292.781C286.692 292.951 295.262 284.061 294.992 282.971C294.712 281.881 293.612 283.051 293.612 283.051C293.612 283.051 294.332 279.071 293.272 277.551C292.212 276.021 290.832 282.881 289.462 282.971C288.082 283.061 290.532 276.821 289.992 275.891C289.452 274.961 288.092 278.771 288.092 278.771C288.092 278.771 288.872 274.581 286.822 273.811C284.772 273.041 285.022 280.551 283.442 280.581C281.852 280.611 283.082 276.871 280.242 276.911C277.412 276.951 283.312 288.681 282.092 291.171C280.862 293.671 278.392 281.721 277.212 281.521C276.022 281.311 275.822 283.741 275.822 283.741C275.822 283.741 274.522 280.571 272.562 281.181C270.592 281.791 273.852 285.251 273.852 285.251C273.852 285.251 272.372 283.611 271.012 284.041C269.662 284.471 275.062 289.181 274.012 290.151C272.972 291.111 270.902 286.611 270.152 288.101C269.412 289.601 273.082 291.931 273.082 291.931C273.082 291.931 269.852 292.201 271.122 293.781C272.392 295.361 281.622 299.281 281.062 301.391C280.502 303.501 271.972 297.391 271.132 298.411C270.292 299.431 274.732 301.851 273.542 301.651C272.362 301.451 268.342 297.891 267.202 299.631C266.072 301.361 267.472 302.861 267.472 302.861C267.472 302.861 264.382 302.151 264.142 303.891C263.902 305.631 269.032 305.871 268.292 306.121C267.552 306.371 267.072 306.471 267.022 307.921C266.982 309.371 277.342 309.431 277.052 311.381C276.762 313.331 271.302 310.071 271.342 311.661C271.372 313.241 275.902 314.001 275.912 315.251C275.912 316.491 271.652 313.441 270.852 313.911C270.052 314.371 271.042 317.011 274.162 317.161C277.282 317.321 285.672 316.721 288.232 322.371C288.612 323.201 288.822 323.921 288.932 324.531C287.202 325.921 285.392 327.201 283.522 328.371C269.362 337.191 265.502 338.271 265.342 338.311L266.002 341.331C266.662 341.191 269.852 340.391 285.142 331.001C287.582 329.501 289.892 327.801 292.082 325.951C294.762 325.371 298.932 325.381 301.342 329.921C305.092 337.021 308.672 342.251 309.932 339.201C311.192 336.161 308.132 329.021 312.402 333.311C316.672 337.611 316.132 342.201 317.942 341.331C319.752 340.461 317.652 337.761 319.162 337.591C320.672 337.431 322.252 341.691 322.332 339.681L322.312 339.671Z" fill="#8CAE67"/>
<path d="M215.302 173.991C215.222 173.961 215.142 173.941 215.062 173.911C214.322 174.441 214.252 175.031 214.872 175.711C214.952 175.711 215.042 175.701 215.122 175.681C215.182 175.121 215.252 174.551 215.312 173.991H215.302Z" fill="#617958"/>
<path d="M67.552 168.521C67.742 168.421 68.142 168.361 68.022 168.131C67.872 167.841 67.532 168.051 67.282 168.171C67.372 168.291 67.462 168.401 67.552 168.521Z" fill="#336732"/>
<path d="M123.752 197.871C123.962 197.771 124.312 197.601 124.192 197.411C123.972 197.071 123.722 197.411 123.502 197.551C123.592 197.661 123.672 197.771 123.762 197.881L123.752 197.871Z" fill="#386D35"/>
<path d="M144.442 160.721C144.702 160.731 145.042 160.911 145.172 160.641C145.282 160.411 144.942 160.321 144.752 160.231C144.652 160.391 144.542 160.561 144.442 160.721Z" fill="#3B7237"/>
<path d="M150.762 160.301C151.002 160.481 151.272 160.761 151.562 160.471C151.712 160.331 151.482 160.171 151.332 160.071C151.142 160.151 150.952 160.221 150.762 160.301Z" fill="#2E6230"/>
<path d="M70.4519 193.221C72.7119 193.921 74.6619 195.001 76.4419 196.551C81.4019 200.881 87.1819 200.301 93.2819 199.921C93.5719 199.901 93.8919 199.891 94.1319 200.051C94.5519 200.331 94.5319 200.951 94.4719 201.461C93.9019 207.001 96.5919 212.751 101.222 215.861C112.222 223.241 129.612 217.851 138.672 209.901C146.832 202.751 152.632 192.781 155.492 182.361C155.742 181.451 156.082 180.571 156.592 179.761C157.212 178.771 157.972 178.001 159.192 177.841C158.732 177.671 158.062 177.791 157.922 177.131C157.792 176.491 158.252 176.071 158.682 175.711C162.382 172.631 166.462 170.541 171.292 170.401C172.042 170.541 172.892 170.611 173.522 170.401C174.302 170.391 175.142 170.331 176.172 170.291C175.372 169.741 174.802 169.841 174.292 169.761C174.282 169.691 174.322 169.631 174.342 169.531C169.942 168.381 165.542 167.221 161.142 166.071C160.042 165.781 158.922 165.491 157.782 165.581C156.352 165.691 155.032 166.381 153.772 167.061C149.682 169.261 145.462 171.571 142.642 175.271C136.222 183.721 138.912 196.861 131.942 204.851C134.572 200.101 136.182 194.801 136.642 189.391C136.672 189.061 136.672 188.671 136.412 188.461C136.012 188.141 135.442 188.541 135.102 188.921C132.532 191.711 129.952 194.511 127.382 197.301C125.452 199.401 123.452 201.651 122.192 204.171C122.252 203.761 122.222 203.341 121.902 203.111C121.492 202.821 120.942 203.051 120.502 203.291C117.862 204.711 115.222 206.131 112.592 207.541C116.062 204.851 119.532 202.151 122.992 199.461C123.632 198.961 124.302 198.021 123.712 197.471C123.282 197.081 122.602 197.351 122.092 197.621C121.562 197.901 121.022 198.141 120.482 198.391C130.192 193.871 138.182 185.581 141.972 175.541C142.122 175.131 142.222 174.571 141.852 174.351C141.612 174.211 141.302 174.301 141.032 174.401C138.512 175.341 135.992 176.291 133.482 177.231C140.092 174.741 146.142 170.791 151.082 165.741C151.372 165.441 151.692 165.031 151.542 164.641C151.402 164.291 150.972 164.171 150.602 164.101C146.752 163.391 142.862 162.671 138.952 162.831C135.042 162.991 131.042 164.101 128.072 166.651C125.562 168.811 124.012 171.781 122.962 174.961C123.402 173.641 123.772 172.311 124.032 170.941C124.092 170.641 124.142 170.331 124.032 170.051C123.632 168.911 121.902 169.661 121.062 170.531C118.222 173.461 115.142 176.171 111.862 178.601C109.702 180.211 107.422 181.721 105.652 183.751C102.932 186.871 101.502 191.111 98.1919 193.601C99.8119 191.911 101.282 190.061 102.552 188.091C103.022 187.371 103.312 186.161 102.512 185.871C102.202 185.761 101.852 185.871 101.542 185.991C98.4619 187.151 95.6019 188.881 93.1219 191.061C93.2019 190.861 93.2319 190.651 93.1119 190.461C92.9219 190.171 92.5119 190.141 92.1619 190.151C90.7619 190.171 89.3519 190.191 87.9519 190.221C94.1019 188.411 99.9119 185.471 105.022 181.601C105.262 181.421 105.512 181.211 105.562 180.911C105.692 180.161 104.582 179.921 103.822 180.031C103.482 180.081 103.142 180.131 102.802 180.171C108.252 178.831 113.442 176.431 117.932 173.071C118.462 172.671 119.022 171.931 118.572 171.451C118.322 171.181 117.892 171.201 117.522 171.241C115.912 171.421 114.292 171.601 112.682 171.781C119.042 170.581 125.142 168.001 130.412 164.241C130.652 164.071 130.912 163.871 130.982 163.591C131.212 162.761 129.952 162.411 129.102 162.501C120.342 163.381 111.572 164.251 102.812 165.131C100.742 165.341 98.6519 165.551 96.6519 166.171C90.1519 168.191 85.7819 174.111 81.8719 179.681C82.7219 178.431 83.5619 177.171 84.4119 175.921C84.7019 175.491 84.9819 174.871 84.6219 174.501C84.3619 174.231 83.9319 174.281 83.5619 174.351C80.7819 174.851 78.0019 175.351 75.2219 175.851C80.8619 174.571 86.1419 171.781 90.3819 167.851C90.5719 167.681 90.7719 167.481 90.8119 167.231C90.9219 166.551 89.9719 166.271 89.2819 166.271C81.8019 166.301 74.0319 166.441 67.2119 169.371C67.5819 169.041 67.7819 168.631 67.5819 168.161C67.0419 166.911 64.9619 168.031 63.8119 167.301C68.1119 166.861 72.4119 166.431 76.7019 165.991C77.0919 165.951 77.5319 165.881 77.7519 165.561C77.9919 165.201 77.8119 164.801 77.4819 164.491C81.4519 165.491 85.9319 164.491 90.0919 163.721C96.3119 162.561 102.662 162.061 108.992 162.251C109.872 162.281 111.132 161.871 110.882 161.031C110.762 160.631 110.332 160.431 109.942 160.281C106.342 158.871 102.662 157.561 98.8419 157.001C94.3319 156.331 89.7719 156.711 85.2519 157.421C86.5619 157.141 87.8819 156.861 89.1719 156.521C88.9519 155.671 87.9319 155.361 87.0719 155.181C82.4519 154.241 77.8319 153.301 73.2119 152.361C77.6119 152.721 82.0219 153.081 86.4219 153.441C86.9819 153.491 87.7219 153.411 87.8619 152.871C87.9919 152.351 87.4519 151.941 86.9819 151.681C83.4319 149.731 79.8219 147.851 76.3319 145.811C79.5119 147.661 82.7719 149.361 86.0419 151.041C86.8419 151.451 87.6719 151.801 88.4519 152.251C90.8219 153.601 93.3319 154.361 96.0819 154.691C99.5619 155.121 102.852 156.391 106.082 157.791C110.662 159.781 115.422 161.151 120.422 161.591C120.842 161.631 121.272 161.681 121.702 161.661C122.352 161.631 122.952 161.461 123.172 160.771C123.382 160.121 122.952 159.711 122.472 159.361C119.712 157.361 116.982 155.311 114.592 152.871C114.102 152.371 113.402 152.241 112.782 152.111C107.932 151.051 103.492 148.891 98.9219 147.081C98.7419 147.011 98.5719 146.941 98.3919 146.871C101.372 148.011 104.632 149.171 107.902 150.361C108.752 150.671 109.602 150.961 110.462 151.201C111.002 151.351 111.532 151.331 111.842 150.801C112.122 150.311 111.812 149.911 111.492 149.531C109.382 147.011 106.752 145.051 104.212 143.011C100.992 140.421 97.3019 138.741 93.4819 137.291C92.9119 137.071 92.3119 136.901 91.7919 136.561C96.7219 137.631 101.242 139.541 105.192 142.791C108.072 145.151 110.452 147.951 112.892 150.721C115.582 153.761 118.432 156.611 122.042 158.651C125.452 160.571 129.112 161.331 132.912 161.481C136.212 161.611 139.532 161.601 142.832 161.521C143.452 161.511 144.072 161.541 144.582 161.101C144.782 160.871 144.942 160.621 144.962 160.301C144.852 159.401 144.082 159.111 143.452 158.741C141.982 157.891 140.382 157.211 138.992 156.251C135.122 153.581 130.672 152.041 126.642 149.691C129.452 150.771 132.272 151.801 134.962 153.171C135.512 153.451 136.082 153.851 136.662 153.361C137.242 152.871 137.032 152.181 136.742 151.651C134.972 148.471 133.262 145.321 129.252 144.281C122.762 142.601 117.092 139.131 112.242 136.181C115.872 138.531 120.702 140.591 125.562 142.571C126.172 142.821 126.812 143.011 127.472 143.101C127.862 143.161 128.242 143.031 128.462 142.671C128.672 142.301 128.542 141.941 128.312 141.611C128.292 141.571 128.282 141.561 128.272 141.551C128.272 141.551 128.272 141.571 128.212 141.501C124.662 137.781 121.802 133.411 117.622 130.281C114.812 128.181 111.952 126.171 108.892 124.971C112.602 126.191 116.352 127.891 119.712 130.391C120.272 130.811 120.902 131.061 121.532 130.581C122.112 130.141 122.002 129.521 121.852 128.891C121.402 126.951 120.332 125.221 119.932 123.261C121.252 125.831 122.532 128.411 123.082 131.281C123.352 132.691 123.882 133.891 124.852 135.041C127.582 138.301 130.462 141.451 133.032 144.851C133.202 145.081 133.392 145.291 133.582 145.501C133.952 145.901 134.362 146.271 134.932 145.991C135.422 145.751 135.472 145.261 135.442 144.761C135.362 143.341 135.172 141.941 135.012 140.531C134.712 137.911 134.582 135.261 134.002 132.671C135.672 137.281 136.432 142.101 137.302 146.891C137.492 147.911 137.662 148.941 137.842 149.961C138.362 152.991 140.072 155.061 142.732 156.531C145.082 157.831 147.682 158.701 149.762 160.491C150.062 160.751 150.442 160.811 150.842 160.711C151.152 160.651 151.392 160.491 151.492 160.181C151.602 159.631 151.262 159.281 150.912 158.961C146.892 155.361 145.072 150.561 143.652 145.551C143.302 144.321 142.862 143.131 142.592 141.781C143.962 144.871 145.292 147.881 146.772 150.831C148.722 154.731 151.752 157.631 155.192 160.241C158.582 162.811 162.522 163.651 166.512 164.391C172.422 165.481 178.452 165.541 184.392 166.371C184.982 166.451 184.812 167.571 185.322 167.061C186.562 165.841 181.572 165.201 181.362 165.161C178.902 164.691 176.862 162.761 174.772 161.431C164.482 154.871 155.322 146.551 147.812 136.941C143.162 130.991 138.962 124.371 132.572 120.331C129.322 118.271 125.342 116.781 121.092 115.921C112.512 114.181 102.862 115.001 96.0419 118.931C93.5119 120.391 91.7619 122.431 90.7719 125.181C90.3919 126.241 90.0419 127.341 89.3319 128.261C88.0719 129.891 86.3119 130.401 84.3419 130.541C81.4519 130.751 78.6519 131.331 75.8919 132.291C67.1519 135.311 59.8219 145.231 56.3019 153.501C51.5419 164.681 53.2619 175.941 60.0719 185.761C62.6719 189.511 66.1519 191.911 70.4219 193.221H70.4519ZM74.7319 163.441C75.0519 163.621 75.3819 163.741 75.7119 163.891C75.3419 163.821 74.9919 163.711 74.7319 163.441ZM119.692 183.891C119.182 183.711 118.672 184.131 118.282 184.521C117.552 185.261 116.812 186.011 116.072 186.751C118.932 183.621 121.172 179.911 122.632 175.931C122.312 176.991 122.042 178.071 121.822 179.151C121.092 182.581 120.642 186.071 120.312 189.561C120.322 188.191 120.332 186.821 120.352 185.461C120.352 184.861 120.262 184.101 119.692 183.911V183.891ZM110.122 201.621C113.652 201.041 117.082 199.971 120.322 198.471C117.092 199.981 113.652 201.071 110.122 201.621Z" fill="#ABBF63"/>
<path d="M214.862 175.711C214.922 175.111 214.992 174.511 215.052 173.911C214.802 172.951 214.002 172.611 213.192 172.341C200.682 168.281 186.992 165.041 173.792 164.601C169.012 164.441 164.422 163.341 159.882 162.091C157.742 161.501 156.022 159.931 154.232 158.621C149.792 155.371 147.232 150.761 145.172 145.811C144.442 144.061 143.682 142.331 142.932 140.601C142.752 140.181 142.582 139.561 142.002 139.711C141.332 139.881 141.662 140.531 141.762 140.921C143.272 146.781 144.542 152.741 148.662 157.531C149.472 158.471 150.342 159.331 151.332 160.071C151.332 160.611 151.062 160.491 150.762 160.301C148.292 158.261 145.322 157.101 142.552 155.591C140.302 154.361 139.042 152.491 138.592 150.021C137.692 145.041 136.922 140.031 135.592 135.141C135.242 133.861 134.812 132.611 134.212 131.421C134.032 131.061 133.842 130.541 133.292 130.731C132.702 130.931 132.962 131.461 133.062 131.831C134.242 136.201 134.212 140.741 134.882 145.171C134.902 145.301 134.852 145.441 134.842 145.591C134.252 145.511 134.092 145.001 133.812 144.671C130.802 141.081 127.822 137.461 124.792 133.891C124.302 133.311 124.052 132.681 123.962 131.981C123.502 128.341 121.562 125.231 120.312 121.871C120.192 121.541 119.972 121.271 119.562 121.391C119.212 121.501 118.992 121.811 119.032 122.151C119.112 122.801 119.222 123.461 119.432 124.081C120.002 125.731 120.642 127.361 121.222 129.011C121.352 129.391 121.702 129.881 121.292 130.191C120.802 130.571 120.432 130.031 120.072 129.771C116.712 127.321 113.032 125.521 109.052 124.331C108.282 124.101 107.012 123.581 106.742 124.381C106.482 125.171 107.872 125.191 108.542 125.491C114.142 127.971 118.852 131.621 122.832 136.241C124.582 138.281 126.202 140.431 128.382 142.501C126.902 142.421 125.852 141.941 124.822 141.511C120.322 139.631 115.872 137.641 111.712 135.081C111.062 134.681 110.062 133.851 109.602 134.561C109.112 135.321 110.422 135.611 110.962 135.971C116.832 139.941 122.972 143.351 129.902 145.141C131.092 145.451 132.062 146.051 132.812 147.031C134.222 148.891 136.092 150.471 136.482 153.171C133.342 151.461 130.142 150.251 126.942 149.021C126.502 148.851 126.042 148.731 125.582 148.661C125.192 148.601 124.782 148.671 124.692 149.151C124.612 149.591 125.012 149.661 125.302 149.801C128.482 151.381 131.732 152.821 134.812 154.581C137.792 156.291 140.792 157.951 143.762 159.681C144.092 159.871 144.422 160.051 144.752 160.231C144.902 160.551 144.602 160.591 144.442 160.721C138.122 160.741 131.752 161.511 125.582 159.471C122.112 158.321 119.122 156.251 116.582 153.681C112.992 150.041 109.952 145.891 106.032 142.551C101.802 138.951 96.4918 136.661 91.0618 135.591C88.4218 135.071 90.6518 136.831 91.6217 137.271C93.4317 138.091 95.3318 138.711 97.1418 139.521C102.812 142.051 107.312 146.121 111.822 150.711C110.672 150.681 109.962 150.331 109.232 150.071C105.092 148.581 100.962 147.051 96.8218 145.561C95.4918 145.081 94.1618 144.581 92.7018 144.671C92.4318 144.691 92.0818 144.671 92.0218 145.041C91.9618 145.421 92.2918 145.491 92.5718 145.541C96.3518 146.241 99.6018 148.291 103.152 149.581C106.222 150.691 109.172 152.111 112.412 152.701C113.402 152.881 114.202 153.391 114.932 154.141C116.992 156.241 119.372 157.971 121.762 159.681C122.132 159.951 122.602 160.101 122.872 160.681C122.102 161.141 121.322 161.001 120.532 160.941C114.902 160.441 109.632 158.651 104.482 156.421C101.302 155.041 97.9718 154.111 94.5018 153.771C93.1018 153.631 91.8418 153.211 90.6018 152.571C85.3018 149.841 79.9018 147.301 74.8018 144.191C74.5018 144.011 74.1118 143.641 73.8118 144.091C73.5218 144.541 74.0218 144.761 74.2918 144.971C77.3018 147.391 80.7818 149.021 84.1318 150.891C85.2218 151.501 86.3318 152.081 87.3418 152.951C85.0618 152.701 82.7718 152.441 80.4918 152.191C78.2318 151.941 75.9718 151.691 73.7118 151.451C73.3818 151.411 73.0418 151.381 72.7218 151.421C72.2118 151.481 71.5418 151.491 71.4718 152.121C71.3818 152.891 72.1118 152.931 72.6418 153.061C77.8418 154.301 83.1318 155.061 88.3918 156.071C85.0218 156.921 81.5918 157.391 78.1418 157.661C77.4818 157.711 76.8218 157.731 76.1618 157.771C75.7918 157.801 75.2618 157.761 75.2218 158.191C75.1718 158.721 75.7318 158.831 76.1318 158.851C77.5018 158.911 78.8718 158.961 80.2418 158.931C83.6618 158.861 87.0718 158.491 90.3418 157.551C94.5518 156.331 98.4918 157.421 102.442 158.511C105.172 159.261 107.822 160.271 110.832 161.271C109.072 161.671 107.582 161.571 106.132 161.561C98.4618 161.511 90.9318 162.601 83.4818 164.261C80.8218 164.851 78.5518 163.841 76.1418 163.331C75.1218 163.121 74.1318 162.811 73.1118 162.581C72.6618 162.481 71.9918 162.321 71.8318 162.831C71.6418 163.461 72.3918 163.471 72.7818 163.601C74.3418 164.121 75.9218 164.591 77.6318 165.121C76.7918 165.611 76.0118 165.601 75.2818 165.591C71.5218 165.561 67.8318 166.071 64.1418 166.681C63.7218 166.751 63.3018 166.851 62.9218 167.011C62.4118 167.231 61.9918 167.641 62.2218 168.231C62.4818 168.891 62.9418 168.281 63.3118 168.271C64.6318 168.251 65.9518 168.201 67.2718 168.171C67.6218 168.081 67.6718 168.231 67.5418 168.521C66.3118 169.311 65.0017 170.001 63.9317 171.021C63.7217 171.211 63.4618 171.431 63.6618 171.731C63.8818 172.061 64.1718 171.841 64.4118 171.721C65.7618 171.031 67.1018 170.321 68.4418 169.631C70.9918 168.311 73.5818 167.621 76.5718 167.651C80.7118 167.691 84.8618 167.051 89.0118 166.711C89.4718 166.671 89.9218 166.641 90.5718 166.931C89.0718 168.111 87.6218 169.361 86.0718 170.461C82.4918 172.991 78.4618 174.441 74.1718 175.211C73.7318 175.291 73.0318 175.141 73.0118 175.741C72.9818 176.461 73.7418 176.341 74.2118 176.391C76.9018 176.661 79.4818 176.081 82.0318 175.351C82.7918 175.131 83.5418 174.841 84.5618 174.491C84.0218 175.711 83.1718 176.401 82.5718 177.261C81.9518 178.151 81.2518 178.991 80.6318 179.881C80.3218 180.331 79.8218 180.971 80.3518 181.391C80.8418 181.781 81.2518 181.071 81.5918 180.741C83.9318 178.511 85.8118 175.881 87.8018 173.361C90.0018 170.581 92.8818 168.581 95.6718 166.481C96.3218 165.991 97.1217 166.081 97.8717 166.081C106.802 166.081 115.602 164.751 124.412 163.531C126.462 163.251 128.522 162.991 130.702 163.221C130.582 163.451 130.552 163.621 130.452 163.671C127.962 164.931 125.682 166.591 123.222 167.851C120.652 169.171 117.772 170.011 114.892 170.621C111.692 171.311 108.472 171.781 105.222 172.111C104.702 172.161 104.182 172.201 103.672 172.321C103.282 172.411 102.642 172.431 102.722 172.951C102.812 173.521 103.402 173.211 103.792 173.191C108.642 172.941 113.492 172.701 118.392 171.941C116.802 172.991 115.182 173.991 113.632 175.101C108.792 178.561 103.162 179.541 97.4718 180.401C95.9318 180.631 94.3918 180.931 92.8618 181.231C92.5018 181.301 92.1318 181.451 91.8218 181.651C91.5718 181.811 91.1618 182.011 91.4218 182.411C91.6218 182.711 91.9218 182.441 92.1918 182.401C96.4718 181.771 100.762 181.151 105.102 180.651C103.232 182.261 101.142 183.531 99.0418 184.731C96.0818 186.421 93.0718 188.031 89.7618 188.971C88.9918 189.191 88.2018 189.371 87.3818 189.341C86.9318 189.321 86.4718 189.391 86.3918 189.931C86.3118 190.491 86.7218 190.801 87.1918 190.951C88.3618 191.311 89.5418 191.121 90.7118 190.971C91.3618 190.881 92.0018 190.721 92.8018 190.561C91.7018 192.551 89.3218 193.311 88.7118 195.541C90.4118 194.281 92.1717 193.111 93.6217 191.561C94.8918 190.201 96.3118 189.111 98.1018 188.431C99.5818 187.861 100.962 187.011 102.462 186.251C102.672 186.971 102.232 187.341 101.982 187.741C100.752 189.721 99.1618 191.421 97.7418 193.251C97.3118 193.811 96.4518 194.581 97.1718 195.171C97.7018 195.611 98.1418 194.541 98.5718 194.121C100.612 192.141 102.792 190.131 103.852 187.501C104.902 184.891 106.822 183.431 108.882 181.831C113.252 178.441 117.732 175.161 121.482 171.041C121.672 170.831 121.912 170.661 122.152 170.521C122.542 170.281 122.962 170.081 123.452 169.811C122.442 176.561 119.452 182.191 114.922 187.051C114.152 187.881 113.412 188.751 112.672 189.611C112.412 189.921 111.922 190.311 112.302 190.691C112.762 191.151 113.012 190.521 113.282 190.261C115.292 188.271 117.532 186.511 119.662 184.321C119.662 185.541 119.722 186.771 119.622 187.981C119.532 189.121 119.542 190.251 119.612 191.381C119.622 191.631 119.702 191.881 119.972 191.911C120.252 191.941 120.352 191.691 120.412 191.451C121.042 188.651 122.022 185.891 121.542 182.941C121.392 182.001 121.412 181.021 121.872 180.161C123.232 177.641 124.312 175.031 124.652 172.171C124.922 169.951 126.422 168.691 128.102 167.571C130.472 165.991 133.012 164.731 135.642 163.641C136.992 163.081 138.362 163.571 139.722 163.591C143.602 163.641 147.432 164.311 151.642 164.741C150.492 165.601 149.592 166.231 148.752 166.921C146.162 169.041 143.912 171.551 140.842 173.081C138.682 174.161 136.542 175.271 134.282 176.131C133.282 176.511 132.432 177.071 131.682 177.811C131.402 178.081 131.142 178.461 131.452 178.811C131.752 179.151 132.032 178.721 132.292 178.581C132.712 178.361 133.102 178.061 133.542 177.931C136.342 177.061 139.112 176.111 141.692 174.711C141.782 174.861 141.882 174.961 141.862 175.001C138.592 180.861 135.392 186.791 130.482 191.521C128.762 193.181 126.512 194.071 124.572 195.421C119.742 198.791 114.262 200.531 108.532 201.601C108.172 201.671 107.472 201.471 107.562 202.101C107.652 202.701 108.272 202.351 108.642 202.301C113.842 201.601 118.852 200.291 123.422 197.601C123.502 197.521 123.592 197.511 123.662 197.581C123.772 197.691 123.802 197.801 123.682 197.931C120.732 200.601 117.582 203.011 114.252 205.191C113.302 205.821 112.372 206.471 111.602 207.311C111.192 207.751 110.932 208.331 111.412 208.841C111.912 209.371 112.222 208.691 112.602 208.511C115.682 207.061 118.532 205.211 121.402 203.351C121.782 203.961 121.492 204.431 121.322 204.891C120.662 206.711 119.982 208.531 119.322 210.351C119.172 210.771 118.812 211.341 119.412 211.581C119.902 211.781 120.062 211.161 120.262 210.811C121.552 208.541 122.572 206.141 123.362 203.661C123.902 201.951 124.712 200.571 126.112 199.351C129.602 196.301 132.832 192.971 135.502 189.141C135.602 189.001 135.762 188.911 136.032 188.681C136.162 190.421 135.552 191.881 135.272 193.371C134.462 197.761 133.232 202.021 130.542 205.711C130.372 205.941 130.132 206.181 130.362 206.461C130.642 206.811 130.972 206.581 131.242 206.411C131.982 205.951 132.532 205.321 133.012 204.601C135.732 200.561 137.072 196.011 138.172 191.331C138.772 188.781 138.842 186.181 139.452 183.641C140.932 177.411 144.562 172.871 150.152 169.861C152.312 168.701 154.602 167.761 156.622 166.341C157.502 165.721 158.442 166.021 159.362 166.271C163.012 167.251 166.542 168.661 170.312 169.231C171.622 169.431 172.932 169.621 174.242 169.811C173.862 170.601 173.162 170.191 172.632 170.171C171.552 170.131 170.482 170.051 169.402 170.111C165.032 170.321 161.582 172.551 158.312 175.171C158.242 175.231 158.172 175.291 158.102 175.361C157.512 175.901 157.092 176.531 157.422 177.351C157.752 178.171 158.492 177.931 159.132 177.891C160.062 177.801 160.802 177.251 161.562 176.811C166.622 173.891 172.402 172.361 178.252 172.391C180.322 172.391 182.972 170.931 184.792 171.451C188.262 172.441 191.782 173.261 195.282 174.131C199.762 175.241 204.232 176.351 208.712 177.451C209.352 177.611 209.992 177.751 210.642 177.911C213.292 178.551 213.732 178.331 214.792 175.781L214.862 175.711Z" fill="#7B9E5F"/>
<path d="M204.041 193.661L204.111 193.511L204.191 193.371C203.871 192.661 203.351 192.391 202.591 192.671C202.511 192.741 202.471 192.831 202.491 192.931C203.011 193.171 203.521 193.421 204.041 193.661Z" fill="#C2CABF"/>
<path d="M157.802 19.1007C156.562 18.5107 155.312 17.9207 154.072 17.3407C148.892 14.9607 143.652 15.2307 138.342 16.8507C135.442 17.7307 132.512 18.5307 129.602 19.3507C125.752 20.4307 121.982 19.6707 118.272 18.6707C113.082 17.2707 107.822 16.8607 102.482 17.1707C95.9416 17.5507 91.9515 21.1907 90.9515 27.6907C90.5415 30.3307 90.7915 32.9407 91.3115 35.5307C92.5015 41.5707 94.4815 47.3507 97.3815 52.7907C100.152 57.9907 102.862 63.2207 105.572 68.4607C109.822 76.6807 116.212 83.1507 123.292 88.9508C125.742 90.9608 127.512 93.3407 128.932 96.1607C132.282 102.861 135.702 109.531 139.332 116.081C142.792 122.301 146.922 128.071 152.542 132.581C154.842 134.421 157.502 135.651 160.222 136.711C161.382 137.161 162.292 137.861 163.122 138.761C165.252 141.081 167.222 143.521 169.012 146.121C170.632 148.481 172.322 150.791 174.302 152.861C175.622 154.251 177.132 155.371 179.102 155.671C179.602 155.071 179.232 154.471 179.062 153.891C177.892 149.821 176.072 145.931 175.122 141.841C173.562 135.181 169.092 131.201 163.742 127.771C155.392 122.431 147.392 116.641 140.192 109.291C141.962 110.361 143.362 111.441 144.772 112.491C146.242 113.581 147.712 114.671 149.162 115.781C154.022 119.501 159.262 122.691 164.072 126.471C164.302 126.651 164.542 126.791 164.822 126.881C165.092 126.971 165.412 127.071 165.642 126.861C165.992 126.541 165.702 126.211 165.512 125.971C164.462 124.681 163.372 123.441 162.282 122.191C160.022 119.601 158.222 116.671 156.122 113.951C156.762 114.151 157.112 114.681 157.472 115.181C161.092 120.291 165.782 124.461 169.852 129.171C170.182 129.551 170.562 130.061 171.132 129.841C171.812 129.571 171.602 128.891 171.572 128.331C171.212 119.921 169.122 111.841 167.012 103.761C166.802 102.961 166.372 102.351 165.662 101.861C162.912 99.9408 159.832 98.7707 156.682 97.7107C152.812 96.4107 148.792 95.8308 144.812 95.0508C142.562 94.6108 140.382 93.9107 138.212 93.2207C137.672 93.0507 137.152 92.8307 136.762 92.2907C139.212 92.8807 141.682 93.3708 144.162 93.7308C146.712 94.1008 149.282 94.2807 151.812 94.7707C152.202 94.8507 152.612 94.8707 152.972 94.6207C153.132 93.8807 152.532 93.6807 152.082 93.3707C147.172 91.0507 142.252 88.7307 137.342 86.4007C129.702 82.7707 122.352 77.9207 116.352 72.5307C116.962 72.6007 117.282 72.8908 117.572 73.1408C120.562 75.7608 123.952 77.8107 127.462 79.6007C131.172 81.5007 135.102 82.9507 138.942 84.5607C139.932 84.9807 140.942 85.4007 141.972 85.7407C142.342 85.8607 142.812 86.0507 143.042 85.5907C143.212 85.2607 142.902 84.9508 142.682 84.7008C142.102 84.0608 141.432 83.5207 140.772 82.9707C137.252 80.0207 134.312 76.5107 131.322 73.0407C134.542 75.7107 137.442 78.7307 140.652 81.4007C145.502 85.4407 150.602 89.0908 156.132 92.1408C158.872 93.6508 161.102 95.7807 163.092 98.1807C163.652 98.8507 164.312 100.091 165.162 99.6007C166.052 99.0907 165.192 97.9507 164.952 97.1307C163.732 92.9607 162.532 88.7907 160.132 85.0707C156.072 78.7807 151.112 73.2507 145.822 68.0107C144.102 66.3107 141.692 65.6007 139.442 64.7607C136.012 63.4707 132.362 62.8307 128.932 61.5907C124.862 60.1107 120.602 60.2207 116.442 59.5607C114.362 59.2307 112.342 58.7107 110.372 57.9607C112.602 58.0307 114.812 58.2708 117.022 58.3908C117.512 58.4208 118.212 58.5907 118.432 58.0707C118.712 57.4307 118.042 57.0307 117.592 56.7707C114.982 55.2407 112.262 53.8807 109.802 52.1007C108.252 50.9807 106.732 49.8307 105.362 48.2907C106.172 48.2507 106.542 48.7407 107.012 49.0207C112.332 52.2607 117.782 55.2308 123.622 57.5107C128.522 59.4207 133.592 60.8707 138.452 62.8807C138.712 62.9907 138.982 63.1007 139.262 63.1507C139.542 63.1907 139.852 63.2707 140.052 63.0007C140.272 62.7107 140.042 62.4608 139.892 62.2308C139.582 61.7508 139.182 61.3307 138.782 60.9307C134.242 56.4107 129.642 51.9408 124.752 47.8008C124.132 47.2708 123.472 46.8508 122.682 46.6408C118.362 45.4608 114.262 43.7007 110.262 41.7107C108.532 40.8507 107.022 39.5307 105.012 39.2407C106.492 39.2907 107.852 39.7107 109.162 40.3307C111.602 41.4707 114.022 42.6307 116.462 43.7707C117.402 44.2107 118.382 44.5407 119.422 44.6007C120.092 44.6307 120.232 44.3007 119.882 43.7507C119.602 43.3107 119.192 42.9907 118.802 42.6607C116.012 40.2907 113.422 37.7107 110.592 35.0007C111.572 34.8107 112.072 35.2907 112.552 35.6607C117.812 39.7107 123.412 43.3008 128.572 47.4808C128.792 47.6608 129.012 47.8507 129.242 48.0107C129.752 48.3607 130.322 48.9707 130.902 48.5107C131.502 48.0308 130.992 47.3407 130.732 46.7907C130.082 45.3907 129.522 43.9408 128.292 42.9007C127.942 42.6007 127.742 42.1707 127.582 41.7407C126.692 39.3307 125.132 37.3607 123.452 35.4707C122.082 33.9407 120.972 32.2607 119.772 30.3307C120.842 30.3007 121.202 30.8507 121.602 31.2707C122.632 32.3407 123.612 33.4607 124.662 34.5207C125.092 34.9507 125.542 35.5807 126.242 35.2807C126.862 35.0207 126.732 34.3207 126.762 33.7507C126.782 33.3007 126.672 32.8408 127.062 32.2308C127.802 33.1408 127.972 34.1508 127.982 35.1208C128.002 37.8108 128.992 40.0607 130.522 42.2407C132.402 44.9107 133.552 48.0007 134.792 51.0207C135.522 52.8007 136.512 54.3807 137.842 55.7407C144.182 62.2707 150.282 69.0207 155.802 76.2707C156.392 77.0507 157.062 77.7507 157.902 78.2707C158.682 78.7507 159.262 78.6607 159.302 77.6507C159.412 75.0207 159.332 72.3908 159.132 69.7607C159.042 68.6208 157.882 68.0808 157.432 67.0508C155.462 62.6108 153.662 58.0807 151.252 53.8407C150.662 52.8007 150.132 51.7107 149.512 50.6807C150.212 51.2307 150.582 52.0207 151.012 52.7707C153.272 56.6907 155.312 60.7207 157.062 64.9007C157.192 65.2207 157.322 65.5307 157.522 65.8207C157.752 66.1607 158.022 66.5407 158.442 66.5107C159.032 66.4608 159.062 65.8908 159.092 65.4508C159.402 61.3408 159.552 57.2208 159.252 53.1108C159.182 52.1008 158.572 51.3007 158.012 50.5007C153.682 44.3107 149.552 37.9807 144.762 32.1307C144.492 31.8007 144.102 31.5208 144.062 30.7608C146.652 33.3208 148.902 35.8907 150.942 38.6307C152.582 40.8307 154.172 43.0707 155.742 45.3207C156.132 45.8807 156.522 46.4607 157.162 46.7907C157.432 46.8807 157.682 46.8408 157.902 46.6408C158.162 46.3008 158.192 45.8907 158.132 45.4907C156.952 37.9307 154.072 31.2207 148.342 25.9307C147.902 25.5207 147.302 25.2907 146.692 24.5907C148.102 24.7807 149.052 25.2707 149.882 25.9607C154.292 29.6507 157.402 34.2407 159.042 39.7607C160.202 43.6507 161.292 47.5607 161.792 51.6207C161.862 52.1707 161.972 52.8707 162.662 52.9107C163.242 52.9507 163.492 52.3307 163.682 51.8707C166.352 45.3707 168.982 38.8607 166.522 31.3507C167.202 31.7807 167.272 32.2207 167.432 32.5807C167.582 32.9507 167.702 33.3307 167.812 33.7207C169.282 38.7207 168.482 43.5108 166.752 48.3308C165.662 51.3608 163.862 54.0107 162.812 57.0407C161.862 59.7808 162.072 62.5907 161.982 65.3707C161.832 69.7707 161.602 74.1707 161.422 78.5707C161.292 81.5907 161.962 84.4708 163.492 87.1108C164.842 89.4508 165.992 91.8807 166.852 94.4307C167.712 96.9807 169.042 99.3408 169.672 101.981C169.772 102.411 169.942 102.931 170.482 102.971C171.022 103.011 171.232 102.511 171.452 102.121C174.272 97.1107 175.682 91.6307 176.512 86.0007C176.722 84.5407 176.092 83.0908 175.502 81.7008C174.522 79.3908 173.562 77.0707 173.202 74.5407C174.062 76.3007 174.922 78.0407 175.882 79.7407C176.182 80.2707 176.432 81.0508 177.152 80.9808C177.862 80.9108 178.002 80.1307 178.152 79.5307C178.342 78.8107 178.642 78.0807 178.512 77.3407C177.772 73.1707 178.902 69.0307 178.702 64.8507C178.572 62.1807 178.592 59.5107 178.282 56.8407C179.372 59.4607 179.472 62.2508 179.742 65.0107C179.862 66.2407 179.652 67.5407 180.402 68.6607C180.692 68.7607 180.922 68.6608 181.132 68.4808C182.192 66.9007 182.252 65.0207 182.632 63.2507C183.342 59.9807 183.692 56.6307 184.452 53.3707C183.522 58.8407 183.762 64.4707 182.362 69.8707C180.762 76.0207 179.092 82.1407 178.002 88.4107C177.872 89.1707 177.332 90.2108 178.202 90.5808C178.872 90.8708 179.392 89.8507 179.832 89.2807C182.262 86.2007 185.712 84.4107 188.792 82.1507C189.152 81.8807 189.632 81.6207 190.052 81.9907C190.482 82.3707 190.192 82.8507 189.992 83.2507C189.572 84.0907 188.912 84.7308 188.182 85.2907C184.772 87.9007 181.702 90.8708 178.592 93.8308C176.432 95.8908 174.982 98.1507 173.792 100.741C173.072 102.301 171.922 103.611 171.292 105.231C171.002 105.981 170.682 106.721 170.832 107.551C172.012 113.731 172.482 120.031 173.982 126.161C174.582 128.611 175.562 130.941 176.432 133.301C176.582 133.721 176.782 134.271 177.292 134.261C177.972 134.251 177.942 133.571 178.042 133.101C179.322 127.091 181.462 121.481 185.602 116.801C186.352 115.941 186.692 114.921 186.602 113.781C186.332 109.981 187.132 106.271 187.642 102.531C187.812 104.701 187.852 106.881 187.842 109.061C187.842 109.891 187.622 111.161 188.442 111.381C189.392 111.641 189.612 110.351 189.962 109.621C191.902 105.601 193.772 101.551 195.852 97.5707C195.372 99.1407 195.072 100.761 194.332 102.241C191.662 107.681 189.342 113.301 186.402 118.611C186.182 119.001 185.842 119.521 186.252 119.851C186.732 120.251 187.232 119.771 187.612 119.461C190.992 116.771 195.122 115.061 197.932 111.601C197.142 113.341 195.992 114.781 194.552 115.981C193.232 117.081 191.882 118.131 190.452 119.101C186.612 121.701 184.152 125.531 181.602 129.251C180.652 130.641 180.632 132.391 180.382 134.041C179.402 140.631 181.162 146.861 182.812 153.111C182.922 153.541 183.082 154.011 183.662 154.061C185.452 152.081 186.092 149.571 186.082 147.091C186.082 143.551 187.042 140.761 189.482 138.061C191.502 135.831 193.282 133.361 195.632 131.441C204.692 124.031 207.002 114.121 205.912 103.091C205.372 97.5807 203.572 92.3807 200.872 87.5207C198.152 82.6107 195.262 77.8107 191.642 73.5007C190.212 71.8007 189.772 70.0508 190.222 67.8308C191.222 62.8508 191.952 57.8107 192.102 52.7107C192.182 49.7207 191.912 46.7808 191.072 43.8908C189.562 38.6808 186.442 34.7507 181.632 32.2407C179.602 31.1807 177.522 30.2307 175.422 29.3207C169.142 26.6107 163.512 22.7808 157.772 19.1208L157.802 19.1007Z" fill="#ABBF63"/>
<path d="M206.092 187.381C196.362 178.911 189.962 168.091 184.452 156.641C184.062 155.821 183.682 154.971 183.682 154.031C182.982 151.461 182.282 148.891 181.572 146.321C180.202 141.381 180.532 136.411 181.292 131.431C181.442 130.431 181.782 129.481 182.372 128.751C184.512 126.101 186.232 123.081 188.882 120.881C190.772 119.311 192.782 117.901 194.752 116.431C196.382 115.211 197.442 113.511 198.622 111.911C198.872 111.571 199.202 111.061 198.672 110.701C198.212 110.391 197.822 110.671 197.522 111.091C195.462 113.951 192.412 115.581 189.582 117.481C188.512 118.201 187.482 118.981 186.662 119.571C189.442 113.701 192.322 107.681 195.112 101.621C195.742 100.241 196.042 98.7107 196.482 97.2407C196.592 96.8707 196.812 96.4207 196.212 96.2807C195.782 96.1807 195.642 96.5807 195.502 96.8808C194.472 99.0508 193.442 101.221 192.412 103.391C191.192 105.971 189.972 108.561 188.562 111.531C187.992 107.821 188.652 104.371 187.922 101.001C187.152 101.251 187.172 101.731 187.122 102.181C186.712 106.091 185.812 109.951 186.162 113.921C186.232 114.761 186.092 115.561 185.532 116.171C180.862 121.241 178.672 127.441 177.332 134.221C175.142 129.181 173.742 124.111 173.052 118.821C172.552 115.041 171.902 111.281 171.272 107.511C170.992 105.861 171.972 104.601 172.732 103.441C174.022 101.461 174.902 99.3007 175.952 97.2107C176.342 96.4307 176.712 95.7408 177.622 95.3908C178.172 95.1808 178.652 94.6708 179.042 94.1908C181.732 90.8808 185.002 88.2307 188.392 85.6807C189.362 84.9507 190.222 84.1307 190.682 82.9707C190.902 82.4207 191.172 81.8908 190.602 81.4108C190.022 80.9207 189.392 81.0308 188.862 81.4408C185.232 84.2508 180.952 86.3008 178.352 90.4508C177.932 89.8008 178.292 89.3308 178.372 88.8208C179.542 81.3308 182.142 74.1707 183.432 66.7207C184.272 61.9007 184.512 56.9808 185.012 52.1008C185.012 52.0308 184.892 51.9407 184.752 51.7807C184.152 52.2207 184.012 52.8507 183.892 53.5207C183.082 57.8807 182.242 62.2408 181.462 66.6108C181.352 67.2508 181.112 67.8108 180.862 68.3808C180.712 68.4308 180.552 68.4908 180.402 68.5408C180.102 64.5708 180.102 60.5607 178.842 56.7107C178.712 56.3107 178.802 55.4607 178.032 55.6807C177.372 55.8607 177.652 56.5707 177.722 57.0307C178.562 62.4307 178.382 67.8308 177.792 73.2308C177.682 74.2708 177.732 75.3008 177.972 76.2908C178.362 77.9108 177.732 79.2908 177.182 81.0708C175.822 78.8408 174.712 76.8307 173.912 74.6507C173.742 74.1907 173.862 73.2508 173.052 73.4408C172.182 73.6507 172.592 74.4908 172.702 75.0508C173.162 77.3608 174.052 79.5407 174.982 81.6807C175.822 83.6107 176.332 85.4908 175.872 87.6008C174.732 92.8408 173.452 98.0208 170.412 102.911C169.902 100.951 169.182 99.2608 168.532 97.5508C166.982 93.5008 165.282 89.5407 163.262 85.6807C161.632 82.5607 161.702 79.0107 161.942 75.5007C162.282 70.6707 162.362 65.8208 162.562 60.9808C162.672 58.3208 163.652 56.0107 164.852 53.6207C168.302 46.7407 170.782 39.6107 167.632 31.8407C167.482 31.4707 167.322 31.0908 167.072 30.8008C166.862 30.5508 166.492 30.3708 166.152 30.6208C165.882 30.8208 165.972 31.0808 166.072 31.3808C167.932 37.1108 167.062 42.6208 164.632 47.9708C163.942 49.5008 163.882 51.3008 162.672 52.6308C162.152 52.3508 162.232 51.8608 162.182 51.4208C161.712 47.0908 160.542 42.9108 159.222 38.8008C157.502 33.4208 154.282 28.9307 149.892 25.3608C149.122 24.7308 148.072 24.4207 147.122 24.0307C146.752 23.8807 146.272 24.0008 146.052 24.3608C145.862 24.6708 146.022 25.0808 146.342 25.2408C149.672 26.9008 151.482 29.9607 153.382 32.9207C156.022 37.0407 157.042 41.7008 157.772 46.4508C157.612 46.5108 157.462 46.5607 157.302 46.6207C153.732 41.8807 150.572 36.8407 146.442 32.5307C145.732 31.7907 145.022 31.0508 144.292 30.3208C143.972 30.0108 143.562 29.9108 143.212 30.2308C142.812 30.6008 143.082 30.9408 143.362 31.2608C148.712 37.3908 153.022 44.2707 157.722 50.8707C158.472 51.9307 158.852 53.0207 158.892 54.3407C159.022 58.2807 158.802 62.2108 158.582 66.6008C157.312 65.0708 156.932 63.4607 156.312 62.0607C154.582 58.1407 152.462 54.4308 150.342 50.7308C150.152 50.3908 149.862 50.0807 149.562 49.8407C149.242 49.5907 148.792 49.4007 148.482 49.7807C148.222 50.1107 148.592 50.3908 148.772 50.6608C151.772 55.0708 153.782 59.9708 155.952 64.8008C156.442 65.8908 156.692 67.1808 157.432 68.0508C160.072 71.1808 158.142 74.8507 159.122 78.3707C157.592 77.7007 156.742 76.7707 155.952 75.7407C150.432 68.5107 144.402 61.7408 137.992 55.3008C135.982 53.2808 135.102 50.6608 134.052 48.1608C132.872 45.3608 131.562 42.6208 129.742 40.2208C128.662 38.7908 128.702 37.2607 128.512 35.7007C128.372 34.5607 128.302 33.4207 127.832 32.3608C127.642 31.9208 127.622 31.2007 126.892 31.3907C126.242 31.5607 126.092 32.1408 126.192 32.7708C126.312 33.5008 126.392 34.2308 126.172 35.2208C124.552 34.0608 123.532 32.4808 122.212 31.2308C121.802 30.8408 121.442 30.3807 121.022 30.0007C120.612 29.6207 120.132 29.1208 119.542 29.5508C118.892 30.0208 119.322 30.6107 119.642 31.0607C120.762 32.6407 121.772 34.3007 123.082 35.7507C124.812 37.6607 126.222 39.7407 127.292 42.1407C128.092 43.9307 129.802 45.2708 130.472 47.2308C130.602 47.6008 130.862 47.9108 130.762 48.5508C128.712 46.9908 126.802 45.5007 124.852 44.0607C120.742 41.0207 116.642 37.9707 112.472 35.0007C111.812 34.5307 110.752 33.5307 110.092 34.3407C109.212 35.4107 110.792 35.7408 111.322 36.2908C113.972 39.0408 116.792 41.6107 119.862 44.2107C117.772 44.0707 116.202 43.0908 114.552 42.3708C111.782 41.1608 109.202 39.5207 106.222 38.8107C105.672 38.6807 105.112 38.5408 104.552 38.4608C104.202 38.4108 103.812 38.4807 103.732 38.8907C103.652 39.3207 103.982 39.4307 104.352 39.5307C107.702 40.3907 110.462 42.5407 113.612 43.8407C116.612 45.0807 119.592 46.3508 122.752 47.1108C123.132 47.2008 123.542 47.3508 123.832 47.6008C129.332 52.4108 134.702 57.3508 139.712 62.6708C139.742 62.7008 139.712 62.7708 139.712 62.9808C134.582 60.5808 129.092 59.3208 123.922 57.1408C121.452 56.1008 118.932 55.1508 116.572 53.9108C113.202 52.1408 109.752 50.5107 106.672 48.2208C106.102 47.7908 105.162 46.9107 104.602 47.6207C103.962 48.4307 105.162 48.9607 105.692 49.4307C108.862 52.2307 112.292 54.6608 116.162 56.4108C116.952 56.7708 117.502 57.4008 118.152 58.0708C115.612 57.8208 113.072 57.5607 110.532 57.3407C110.062 57.3007 109.322 56.8808 109.152 57.5108C108.952 58.2108 109.782 58.3908 110.282 58.5508C111.802 59.0308 113.322 59.5608 114.882 59.7908C117.642 60.2108 120.432 60.5307 123.222 60.7107C126.462 60.9207 129.342 62.3908 132.442 63.1108C136.082 63.9608 139.632 65.2108 143.072 66.8008C145.582 67.9608 147.182 70.0207 148.952 71.9307C153.652 77.0007 158.242 82.1608 161.412 88.3908C163.182 91.8808 163.782 95.7608 165.322 99.6008C163.932 98.9308 163.342 97.8008 162.562 96.9208C160.382 94.4608 157.772 92.6507 154.932 90.9907C149.282 87.7007 143.952 83.9007 139.112 79.4607C136.722 77.2607 134.292 75.1008 131.922 72.8808C131.422 72.4108 130.962 72.0808 130.052 72.4208C134.042 77.0708 138.042 81.5707 142.732 85.4607C141.162 84.9807 139.662 84.4107 138.172 83.8407C135.402 82.7907 132.722 81.5008 130.002 80.3308C125.942 78.5708 122.092 76.3108 118.652 73.4508C118.042 72.9408 117.422 72.4407 116.792 71.9607C116.402 71.6707 115.912 71.4808 115.552 71.8908C115.142 72.3608 115.552 72.6907 115.922 73.0007C121.462 77.5707 127.322 81.6007 133.722 84.9607C139.652 88.0707 145.782 90.7307 151.752 93.7407C152.152 93.9907 152.732 94.0308 152.842 94.6308C149.652 93.7008 146.312 93.6708 143.052 93.1108C141.022 92.7708 139.032 92.3407 137.082 91.7407C136.602 91.5907 136.012 91.2208 135.732 91.8608C135.412 92.6008 136.132 92.8308 136.632 93.0508C138.772 93.9908 140.982 94.6908 143.272 95.1908C147.882 96.1807 152.572 96.8107 157.082 98.2807C160.212 99.3007 163.202 100.681 165.902 102.531C167.072 103.341 166.862 105.161 167.232 106.511C169.262 113.941 170.722 121.481 171.222 129.191C171.222 129.331 171.132 129.481 171.042 129.771C168.922 127.491 166.952 125.231 164.822 123.131C161.962 120.301 159.562 117.121 157.082 113.981C156.902 113.761 156.732 113.531 156.552 113.311C156.222 112.911 155.802 112.721 155.362 113.071C154.932 113.411 155.202 113.791 155.442 114.121C157.602 116.921 159.752 119.741 161.952 122.511C163.082 123.931 164.312 125.261 165.322 126.841C163.102 125.211 160.942 123.481 158.652 121.961C152.592 117.941 146.892 113.421 140.982 109.181C140.752 109.011 140.492 108.891 140.262 108.711C139.922 108.451 139.612 108.481 139.382 108.811C139.132 109.161 139.312 109.411 139.622 109.671C144.552 113.781 149.052 118.401 154.402 122.041C158.952 125.141 163.692 127.971 167.982 131.441C169.522 132.691 170.852 134.211 172.292 135.591C173.122 136.381 172.942 137.511 173.292 138.461C174.442 141.571 175.582 144.691 176.642 147.831C177.512 150.421 178.272 153.051 179.082 155.661C182.512 163.411 186.802 170.681 191.752 177.531C195.382 182.561 198.392 188.041 202.592 192.661C203.122 192.891 203.652 193.131 204.192 193.361C205.732 193.361 207.082 192.911 207.662 191.371C208.312 189.641 207.322 188.441 206.092 187.371V187.381Z" fill="#7B9E5F"/>
<path d="M242.692 40.8407H202.812L198.162 10.5508C197.392 5.51075 201.292 0.960754 206.392 0.960754H240.032C245.232 0.960754 249.162 5.68075 248.222 10.8008L242.692 40.8407Z" fill="#648E47"/>
<path d="M290.542 145.001C290.402 143.621 290.122 142.281 289.512 140.931C287.592 136.671 283.642 133.961 279.842 131.511C274.772 128.231 269.492 125.241 264.212 122.321C248.782 113.781 246.462 105.111 246.172 101.741V50.6807H201.572V101.741C201.292 105.111 198.962 113.781 183.532 122.321C178.282 125.231 173.042 128.191 167.992 131.451C165.762 132.891 163.462 134.361 161.522 136.181C156.702 140.671 157.032 146.781 157.032 152.741V350.851C157.032 357.741 162.612 363.321 169.502 363.321H278.232C285.122 363.321 290.702 357.741 290.702 350.851V173.271C290.702 167.821 290.802 162.371 290.802 156.911C290.802 154.141 290.782 151.381 290.712 148.611C290.682 147.371 290.662 146.181 290.542 145.011V145.001Z" fill="#D7B987"/>
<path d="M274.242 167.701H173.492V291.801H274.242V167.701Z" fill="#CCA970"/>
<path d="M244.802 50.6807H203.032C199.052 50.6807 195.822 47.4507 195.822 43.4707C195.822 39.4907 199.052 36.2607 203.032 36.2607H244.802C248.782 36.2607 252.012 39.4907 252.012 43.4707C252.012 47.4507 248.782 50.6807 244.802 50.6807Z" fill="#CCA970"/>
<g filter="url(#filter2_d_4_700)">
<path d="M287.105 226.174C296.236 207.327 290.705 185.782 274.75 178.052C258.796 170.322 238.46 179.335 229.329 198.182C220.197 217.029 225.729 238.574 241.683 246.303C257.637 254.033 277.973 245.021 287.105 226.174Z" fill="#ABBF63"/>
<path d="M252.562 186.811C242.322 192.071 235.872 202.191 233.212 213.141C232.822 214.711 232.552 216.321 232.132 217.911C232.182 216.281 232.242 214.631 232.412 212.991C233.792 201.581 241.162 190.171 252.552 186.811H252.562Z" fill="#F1E2CE"/>
<path d="M236.262 236.501C250.372 244.021 266.602 242.461 277.072 229.781C280.232 225.901 282.662 221.361 283.972 216.411C283.292 221.491 281.192 226.411 278.082 230.571C267.922 244.151 249.882 246.071 236.262 236.501Z" fill="#F1E2CE"/>
<path d="M245.522 235.431C255.162 237.581 265.202 235.021 272.292 228.131C273.952 226.671 275.462 224.831 276.972 223.201C275.902 225.121 274.562 227.221 273.062 228.881C266.562 236.671 254.802 239.701 245.522 235.431Z" fill="#F1E2CE"/>
<path d="M272.762 180.621C272.762 180.621 275.452 186.971 281.362 184.241C286.662 176.831 314.322 148.151 314.322 148.151L312.772 155.231L318.822 155.021C318.822 155.021 327.022 138.321 332.112 130.591C337.202 122.871 340.632 115.301 340.632 115.301L342.192 107.941L341.362 104.211C341.362 104.211 333.872 123.181 326.962 129.391C310.522 144.161 293.392 158.141 278.422 174.451C277.952 174.961 272.542 180.071 272.772 180.611L272.762 180.621Z" fill="#648E47"/>
<path d="M353.282 66.9208C353.282 66.9208 339.072 103.811 336.812 128.131C334.552 152.451 330.042 180.671 357.592 206.451C367.232 214.091 379.712 216.711 386.562 216.891C386.292 214.401 379.482 214.701 369.422 199.081C359.362 183.451 360.622 171.901 355.342 156.701C350.052 141.501 346.212 138.551 346.212 138.551C346.212 138.551 342.652 132.091 342.922 123.731C343.192 115.381 344.432 102.771 359.462 77.5308C360.232 77.1508 357.952 68.7908 353.282 66.9208Z" fill="#648E47"/>
<path d="M178.372 198.901C179.442 193.171 184.062 186.971 187.642 182.491C191.572 177.581 196.222 173.281 201.312 169.591C211.602 162.131 223.602 157.131 235.932 154.191C236.042 154.161 236.162 154.141 236.272 154.111C244.652 152.131 253.312 151.501 261.912 151.721C270.172 151.941 278.482 154.011 286.722 153.681C292.042 153.471 297.412 151.841 302.662 151.021C301.422 151.211 298.722 154.881 297.722 155.801C295.922 157.451 294.062 159.041 292.162 160.581C282.242 168.621 271.252 175.591 259.322 180.231C248.062 184.601 236.772 184.281 224.962 185.101C211.152 186.061 197.842 189.241 185.532 195.631C183.252 196.821 181.002 197.601 178.382 198.901H178.372Z" fill="#648E47"/>
<path d="M199.662 183.381C201.992 180.841 204.902 178.881 207.812 177.061C213.692 173.491 220.242 170.881 226.752 168.731C234.452 166.351 242.352 164.651 250.332 163.481C259.452 162.461 268.412 161.421 277.362 159.801C281.822 158.991 286.272 158.081 290.622 156.851C294.852 155.531 299.542 154.351 302.662 151.011C295.772 160.531 265.812 164.641 254.072 166.011C237.232 168.161 213.272 173.041 199.662 183.371V183.381Z" fill="#ABBF63"/>
<path d="M186.492 97.2107C203.992 113.661 222.412 130.901 245.502 138.861C269.052 146.971 294.352 144.611 318.282 139.251C318.842 139.121 319.682 139.091 320.182 138.771L322.992 132.941C322.872 133.201 321.532 133.461 321.282 133.541C312.422 136.461 303.122 135.121 294.342 132.331C288.482 130.471 282.942 127.681 277.942 124.121C264.302 114.391 253.792 104.391 238.122 98.9407C222.452 93.4907 201.922 91.0307 186.492 97.2207V97.2107Z" fill="#648E47"/>
<path d="M206.072 103.071C218.082 107.561 230.172 112.211 241.372 118.611C247.982 122.451 254.602 126.301 261.592 129.321C277.802 136.671 296.162 137.761 313.772 136.861L317.612 136.641C318.902 136.551 320.202 136.711 321.412 136.231C301.422 140.581 279.392 140.471 260.392 132.071C253.272 128.931 246.592 124.971 240.042 120.861C229.142 114.171 217.482 108.971 206.082 103.071H206.072Z" fill="#ABBF63"/>
<path d="M340.332 139.851C343.692 160.131 348.312 181.191 361.112 197.771C362.962 200.081 365.002 202.241 367.192 204.321C364.602 202.771 362.232 200.861 360.022 198.761C345.452 184.031 339.662 160.091 340.332 139.851Z" fill="#ABBF63"/>
<path d="M334.368 225.749C349.79 221.128 357.423 201.132 351.416 181.087C345.41 161.041 328.039 148.537 312.617 153.158C297.196 157.779 289.563 177.775 295.569 197.82C301.576 217.866 318.946 230.37 334.368 225.749Z" fill="#ABBF63"/>
<path d="M299.972 178.861C300.442 189.561 302.762 200.671 309.332 209.361C316.382 218.191 325.292 220.561 336.292 219.071C331.112 220.351 325.542 220.831 320.362 219.141C304.182 213.701 298.632 194.351 299.972 178.861Z" fill="#F1E2CE"/>
<path d="M306.262 192.321C309.382 202.671 315.632 212.291 327.332 213.161C315.372 215.011 306.782 203.231 306.262 192.321Z" fill="#F1E2CE"/>
<path d="M324.292 157.281C338.442 162.841 346.512 178.441 347.292 193.061C347.342 194.051 347.292 195.061 347.062 196.021C347.162 193.571 346.442 191.171 345.932 188.801C342.762 176.151 335.882 164.011 324.292 157.271V157.281Z" fill="#F1E2CE"/>
</g>
<defs>
<filter id="filter0_d_4_700" x="269.32" y="176.199" width="76.8904" height="76.8907" filterUnits="userSpaceOnUse" color-interpolation-filters="sRGB">
<feFlood flood-opacity="0" result="BackgroundImageFix"/>
<feColorMatrix in="SourceAlpha" type="matrix" values="0 0 0 0 0 0 0 0 0 0 0 0 0 0 0 0 0 0 127 0" result="hardAlpha"/>
<feOffset dx="-4.06" dy="-4.06"/>
<feGaussianBlur stdDeviation="4.06"/>
<feColorMatrix type="matrix" values="0 0 0 0 0.00392157 0 0 0 0 0.00392157 0 0 0 0 0.00392157 0 0 0 0.25 0"/>
<feBlend mode="normal" in2="BackgroundImageFix" result="effect1_dropShadow_4_700"/>
<feBlend mode="normal" in="SourceGraphic" in2="effect1_dropShadow_4_700" result="shape"/>
</filter>
<filter id="filter1_d_4_700" x="267.625" y="352.017" width="72.7193" height="72.7192" filterUnits="userSpaceOnUse" color-interpolation-filters="sRGB">
<feFlood flood-opacity="0" result="BackgroundImageFix"/>
<feColorMatrix in="SourceAlpha" type="matrix" values="0 0 0 0 0 0 0 0 0 0 0 0 0 0 0 0 0 0 127 0" result="hardAlpha"/>
<feOffset dx="-3.61" dy="-3.61"/>
<feGaussianBlur stdDeviation="3.61"/>
<feColorMatrix type="matrix" values="0 0 0 0 0.00392157 0 0 0 0 0.00392157 0 0 0 0 0.00392157 0 0 0 0.25 0"/>
<feBlend mode="normal" in2="BackgroundImageFix" result="effect1_dropShadow_4_700"/>
<feBlend mode="normal" in="SourceGraphic" in2="effect1_dropShadow_4_700" result="shape"/>
</filter>
<filter id="filter2_d_4_700" x="169.072" y="62.2708" width="226.79" height="200.751" filterUnits="userSpaceOnUse" color-interpolation-filters="sRGB">
<feFlood flood-opacity="0" result="BackgroundImageFix"/>
<feColorMatrix in="SourceAlpha" type="matrix" values="0 0 0 0 0 0 0 0 0 0 0 0 0 0 0 0 0 0 127 0" result="hardAlpha"/>
<feOffset dy="4.65"/>
<feGaussianBlur stdDeviation="4.65"/>
<feColorMatrix type="matrix" values="0 0 0 0 0.00392157 0 0 0 0 0.00392157 0 0 0 0 0.00392157 0 0 0 0.25 0"/>
<feBlend mode="normal" in2="BackgroundImageFix" result="effect1_dropShadow_4_700"/>
<feBlend mode="normal" in="SourceGraphic" in2="effect1_dropShadow_4_700" result="shape"/>
</filter>
</defs>
</svg>
