<svg width="184" height="135" viewBox="0 0 184 135" fill="none" xmlns="http://www.w3.org/2000/svg">
<g clip-path="url(#clip0_8_1135)">
<path d="M183.745 74.3059C183.745 75.9659 182.495 77.0959 180.485 77.0959C175.275 77.1159 170.075 77.0759 164.845 77.1159H140.925C134.075 77.1359 127.215 77.1359 120.365 77.0559C118.355 77.0359 117.045 77.4259 116.305 79.3959C115.835 80.6459 114.865 81.4259 113.395 81.3259C111.985 81.2459 111.285 80.3259 110.755 79.1559C110.035 77.5359 109.235 75.9359 108.355 74.0559C108.005 74.7759 107.785 75.1859 107.595 75.6159C106.305 78.4659 105.015 81.3359 103.725 84.2059C103.195 85.3759 102.285 86.0759 100.995 86.0259C99.6853 85.9859 98.8453 85.2259 98.4153 83.9959C98.3353 83.7459 98.2353 83.5059 98.1453 83.2359C96.5253 78.6659 94.9053 74.1159 93.3053 69.5459C93.1453 69.0959 92.9553 68.6659 92.7753 68.2159C92.6753 68.2359 92.5953 68.2559 92.4853 68.2559C92.2153 69.7759 91.9353 71.3059 91.6653 72.8259C89.7353 83.8359 87.8353 94.8359 85.9053 105.826C85.7653 106.566 85.5153 107.346 85.0853 107.916C84.3653 108.856 83.3053 109.086 82.1753 108.716C80.7853 108.246 80.3553 107.116 80.2053 105.786C78.5653 90.9259 76.9253 76.0859 75.2653 61.2259C74.8153 57.1059 74.3653 52.9659 73.8953 48.8259C73.5853 49.0959 73.4653 49.3559 73.4253 49.6659C72.1353 57.4959 70.8653 65.3259 69.5753 73.1559C68.8153 77.7659 68.0753 82.3759 67.3053 86.9659C67.0153 88.6659 65.8653 89.6559 64.4153 89.5659C63.0453 89.5059 62.0953 88.6859 61.7753 87.1259C60.8753 82.7359 60.0153 78.3359 59.1153 73.9459C58.4753 70.7859 57.8453 67.6559 57.2053 64.4959C56.8553 64.8259 56.7353 65.1559 56.6753 65.4759C56.0353 68.3259 55.4253 71.1759 54.8053 74.0259C54.2953 76.4459 53.4953 77.0959 51.0353 77.0959C47.5953 77.1159 44.1653 77.0959 40.7253 77.1159V77.0959H21.4953C21.4153 77.0759 21.3153 77.0759 21.2253 77.0759C20.5453 77.0959 19.8953 77.0959 19.2353 77.0959C18.4153 77.0959 17.6153 77.1159 16.8153 77.0959H15.2353C11.3453 77.1159 7.46528 77.0959 3.57528 77.1159C2.34528 77.1159 1.25528 76.8459 0.565284 75.7259C-0.544716 73.8859 0.795284 71.5859 3.04528 71.5659C7.26528 71.5259 11.4853 71.5459 15.6953 71.5459H28.8553C29.0153 71.5659 29.2053 71.5659 29.3853 71.5659C35.3853 71.5459 41.4153 71.5459 47.4253 71.5459H49.6153C49.7353 71.0159 49.8653 70.5859 49.9653 70.1559C51.4253 63.3959 52.8553 56.6459 54.3153 49.8859C54.7253 48.0859 55.6853 47.2159 57.2053 47.2659C58.6853 47.2859 59.5853 48.1259 59.9353 49.8659C61.1853 56.0359 62.4153 62.1859 63.6653 68.3359C63.7853 68.9959 63.9553 69.6459 64.0953 70.3059C64.5253 69.6059 64.6653 68.9559 64.7753 68.2959C67.0253 54.6259 69.2653 40.9359 71.5153 27.2659C71.8253 25.4459 72.8853 24.4159 74.4053 24.4759C76.0053 24.5359 76.9453 25.6259 77.1553 27.5459C77.3353 29.4359 77.5453 31.2959 77.7753 33.1859C79.3753 47.5759 80.9753 61.9859 82.5753 76.3959C82.9053 79.3259 83.2353 82.2559 83.5753 85.1859H83.8653C83.9653 84.6959 84.0753 84.2259 84.1553 83.7559C85.7153 74.8159 87.2753 65.8859 88.8053 56.9659C89.1553 54.9559 89.9753 54.0159 91.4453 53.8459C92.8553 53.7059 93.9053 54.5459 94.5853 56.4259C96.4953 61.8359 98.3953 67.2459 100.325 72.6559C100.635 73.5759 100.985 74.4759 101.415 75.6659C101.785 74.9259 102.005 74.5159 102.195 74.0859C103.305 71.6259 104.425 69.1659 105.495 66.7059C106.045 65.4559 106.825 64.5759 108.285 64.5759C109.745 64.5759 110.535 65.4759 111.095 66.7059C111.955 68.6359 112.875 70.4959 113.635 72.0959C114.965 71.8859 116.035 71.5659 117.095 71.5659C128.535 71.5459 139.985 71.5459 151.405 71.5659H173.685C175.965 71.5459 178.215 71.5659 180.495 71.5659C182.505 71.5659 183.775 72.6559 183.775 74.3159L183.745 74.3059Z" fill="#ABBF63"/>
<path d="M163.785 47.1259C164.335 34.1759 159.805 23.3559 149.375 15.3959C140.645 8.7359 130.585 7.0559 120.005 8.5959C108.195 10.3159 99.9353 16.7759 95.6753 28.0859C94.9953 29.8859 93.7053 30.8759 91.9853 30.8759C90.2453 30.8559 88.9553 29.8559 88.2953 28.0459C85.6953 20.7459 80.9553 15.2759 74.0753 11.7159C67.2453 8.1859 59.9353 7.6759 52.4353 8.4559C34.9153 10.2759 21.4053 24.3659 20.2753 41.9259C19.5953 52.3159 22.5053 61.7859 27.6153 70.7059C27.9653 71.2959 28.3553 71.4859 28.8653 71.5459H19.0453C17.6053 67.7159 16.0153 64.1259 14.9253 60.4159C10.6053 45.8859 11.6853 31.9259 20.4553 19.2359C28.2853 7.9159 39.3953 1.9759 53.0453 0.725902C60.5253 0.0259019 67.8253 0.765902 74.8353 3.6559C81.5353 6.4059 86.9253 10.7859 91.0453 16.7359C91.3353 17.1459 91.5953 17.5359 91.9853 18.0859C92.4753 17.3859 92.8853 16.8359 93.2953 16.2659C99.9753 7.0259 109.175 2.0859 120.395 0.835902C130.395 -0.274098 140.075 1.0159 148.905 6.0859C163.685 14.5259 170.975 27.5459 171.425 44.4359C171.675 53.2659 169.355 61.5659 165.645 69.5259C165.355 70.1159 165.075 70.7159 164.665 71.5559H166.325C168.765 71.5559 171.225 71.5559 173.665 71.5759H154.375C155.445 71.5759 156.075 71.2859 156.605 70.3459C160.705 63.1359 163.405 55.4659 163.775 47.1459L163.785 47.1259Z" fill="#ABBF63"/>
<path d="M149.375 15.3958C140.645 8.73585 130.585 7.05585 120.005 8.59585C108.195 10.3158 99.9353 16.7758 95.6753 28.0858C94.9953 29.8858 93.7053 30.8758 91.9853 30.8758C90.2453 30.8558 88.9553 29.8558 88.2953 28.0458C85.6953 20.7458 80.9553 15.2758 74.0753 11.7158C67.2453 8.18585 59.9353 7.67585 52.4353 8.45585C34.9153 10.2758 21.4053 24.3658 20.2753 41.9258C19.5953 52.3158 22.5053 61.7858 27.6153 70.7058C27.9653 71.2958 28.3553 71.4858 28.8653 71.5458C29.0253 71.5658 29.2153 71.5658 29.3953 71.5658C35.3953 71.5458 41.4253 71.5458 47.4353 71.5458H49.6253C49.7453 71.0158 49.8753 70.5858 49.9753 70.1558C51.4353 63.3958 52.8653 56.6458 54.3253 49.8858C54.7353 48.0858 55.6953 47.2158 57.2153 47.2658C58.6953 47.2858 59.5953 48.1258 59.9453 49.8658C61.1953 56.0358 62.4253 62.1858 63.6753 68.3358C63.7953 68.9958 63.9653 69.6458 64.1053 70.3058C64.5353 69.6058 64.6753 68.9558 64.7853 68.2958C67.0353 54.6258 69.2753 40.9358 71.5253 27.2658C71.8353 25.4458 72.8953 24.4158 74.4153 24.4758C76.0153 24.5358 76.9553 25.6258 77.1653 27.5458C77.3453 29.4358 77.5553 31.2958 77.7853 33.1858C79.3853 47.5758 80.9853 61.9859 82.5853 76.3959C82.9153 79.3259 83.2453 82.2559 83.5853 85.1859H83.8753C83.9753 84.6959 84.0853 84.2259 84.1653 83.7559C85.7253 74.8158 87.2853 65.8858 88.8153 56.9658C89.1653 54.9558 89.9853 54.0158 91.4553 53.8458C92.8653 53.7058 93.9153 54.5458 94.5953 56.4258C96.5053 61.8358 98.4053 67.2458 100.335 72.6558C100.645 73.5758 100.995 74.4758 101.425 75.6658C101.795 74.9258 102.015 74.5158 102.205 74.0858C103.315 71.6258 104.435 69.1658 105.505 66.7058C106.055 65.4558 106.835 64.5758 108.295 64.5758C109.755 64.5758 110.545 65.4758 111.105 66.7058C111.965 68.6358 112.885 70.4958 113.645 72.0958C114.975 71.8858 116.045 71.5658 117.105 71.5658C128.545 71.5458 139.995 71.5458 151.415 71.5658H154.405C155.475 71.5658 156.105 71.2758 156.635 70.3358C160.735 63.1258 163.435 55.4558 163.805 47.1358C164.355 34.1858 159.825 23.3658 149.395 15.4058L149.375 15.3958ZM142.345 44.1358H135.235V51.2458C135.235 53.5158 133.395 55.3458 131.135 55.3458C128.875 55.3458 127.035 53.5258 127.035 51.2458V44.1358H119.905C117.655 44.1358 115.805 42.2958 115.805 40.0358C115.805 37.7758 117.645 35.9358 119.905 35.9358H127.035V28.8058C127.035 26.5558 128.855 24.7058 131.135 24.7058C133.415 24.7058 135.235 26.5458 135.235 28.8058V35.9358H142.345C144.595 35.9358 146.445 37.7558 146.445 40.0358C146.445 42.3158 144.605 44.1358 142.345 44.1358Z" fill="#34653D"/>
<path d="M146.445 40.0359C146.445 42.2859 144.605 44.1359 142.345 44.1359H135.235V51.2459C135.235 53.5159 133.395 55.3459 131.135 55.3459C128.875 55.3459 127.035 53.5259 127.035 51.2459V44.1359H119.905C117.655 44.1359 115.805 42.2959 115.805 40.0359C115.805 37.7759 117.645 35.9359 119.905 35.9359H127.035V28.8059C127.035 26.5559 128.855 24.7059 131.135 24.7059C133.415 24.7059 135.235 26.5459 135.235 28.8059V35.9359H142.345C144.595 35.9359 146.445 37.7559 146.445 40.0359Z" fill="#ABBF63"/>
<path d="M152.125 77.1059C150.715 78.8659 149.585 80.3659 148.375 81.7759C147.375 82.9659 146.345 84.1559 145.285 85.2959C145.165 85.4559 145.015 85.6059 144.875 85.7459C143.435 87.3459 141.945 88.9059 140.425 90.3959C139.665 91.1959 138.865 91.9759 138.045 92.7559C136.505 94.2359 134.955 95.6659 133.355 97.0559C132.455 97.8959 131.535 98.6959 130.585 99.4559C130.335 99.6859 130.095 99.8859 129.845 100.096C128.655 101.096 127.425 102.106 126.195 103.066C124.865 104.136 123.505 105.156 122.135 106.186C120.765 107.206 119.365 108.236 117.975 109.216C109.875 114.976 101.375 120.206 93.0754 125.696C92.3354 126.166 91.7654 126.186 91.0054 125.736C74.6254 116.016 59.0354 105.236 45.2954 91.9759C44.4354 91.1359 43.5754 90.2759 42.7354 89.3959C42.0354 88.6559 41.3654 87.9159 40.6854 87.1859C40.5254 87.0259 40.3754 86.8559 40.2354 86.6959C40.2154 86.6759 40.1754 86.6559 40.1554 86.6159C39.0254 85.3459 37.9054 84.0759 36.7754 82.8059C35.6054 81.4959 34.4554 80.2059 33.2954 78.9159C32.8854 78.4659 32.5554 77.9359 32.0254 77.1959C32.7454 77.1559 33.2154 77.1159 33.6654 77.1159H40.7354C44.1754 77.0959 47.6054 77.1159 51.0454 77.0959C53.5054 77.0959 54.3054 76.4359 54.8154 74.0259C55.4354 71.1759 56.0454 68.3259 56.6854 65.4759C56.7454 65.1459 56.8654 64.8159 57.2154 64.4959C57.8554 67.6559 58.4854 70.7859 59.1254 73.9459C60.0254 78.3359 60.8854 82.7359 61.7854 87.1259C62.1154 88.6859 63.0554 89.5059 64.4254 89.5659C65.8854 89.6459 67.0254 88.6659 67.3154 86.9659C68.0954 82.3759 68.8354 77.7659 69.5854 73.1559C70.8754 65.3259 72.1454 57.4959 73.4354 49.6659C73.4754 49.3559 73.5954 49.0959 73.9054 48.8259C74.3754 52.9659 74.8254 57.1059 75.2754 61.2259C76.9354 76.0859 78.5754 90.9259 80.2154 105.786C80.3554 107.116 80.7854 108.246 82.1854 108.716C83.3154 109.086 84.3754 108.856 85.0954 107.916C85.5254 107.346 85.7754 106.566 85.9154 105.826C87.8454 94.8359 89.7454 83.8359 91.6754 72.8259C91.9454 71.3059 92.2254 69.7759 92.4954 68.2559C92.5954 68.2559 92.6754 68.2359 92.7854 68.2159C92.9754 68.6659 93.1554 69.0959 93.3154 69.5459C94.9154 74.1159 96.5354 78.6659 98.1554 83.2359C98.2354 83.5059 98.3354 83.7459 98.4254 83.9959C98.8554 85.2259 99.6954 85.9859 101.005 86.0259C102.295 86.0659 103.195 85.3659 103.735 84.2059C105.025 81.3359 106.315 78.4659 107.605 75.6159C107.785 75.1859 108.015 74.7759 108.365 74.0559C109.245 75.9459 110.045 77.5359 110.765 79.1559C111.295 80.3259 111.995 81.2459 113.405 81.3259C114.885 81.4259 115.845 80.6459 116.315 79.3959C117.055 77.4259 118.365 77.0359 120.375 77.0559C127.225 77.1359 134.085 77.1359 140.935 77.1159H152.125V77.1059Z" fill="#34653D"/>
<path d="M164.845 77.1059C164.085 77.1059 163.325 77.1259 162.575 77.1259C162.025 77.1259 161.225 77.4359 160.935 77.8859C159.095 80.6159 157.125 83.2359 155.035 85.7559C149.465 92.6059 143.085 98.7259 136.345 104.506C123.415 115.556 109.415 125.106 94.6754 133.586C92.7854 134.676 91.1454 134.636 89.2854 133.546C71.0054 122.946 53.7854 110.936 38.5954 96.1859C35.4754 93.1759 32.4854 90.0159 29.7254 86.6959C27.4754 84.0059 25.3354 81.2059 23.4154 78.2359C22.9654 77.5559 22.4954 77.2159 21.7754 77.1059C21.6954 77.1059 21.6154 77.0859 21.5054 77.0859H40.7354V77.1059H33.6654C33.2154 77.1059 32.7454 77.1459 32.0254 77.1859C32.5554 77.9259 32.8854 78.4559 33.2954 78.9059C34.4654 80.1959 35.6154 81.4859 36.7754 82.7959C37.9054 84.0659 39.0254 85.3359 40.1554 86.6059C40.1754 86.6459 40.2154 86.6659 40.2354 86.6859C40.3754 86.8459 40.5254 87.0159 40.6854 87.1759C41.3654 87.9159 42.0354 88.6559 42.7354 89.3859C43.5754 90.2659 44.4354 91.1259 45.2954 91.9659C59.0254 105.226 74.6254 116.006 91.0054 125.726C91.7654 126.176 92.3354 126.156 93.0754 125.686C101.375 120.196 109.885 114.966 117.975 109.206C119.365 108.226 120.765 107.196 122.135 106.176C123.505 105.156 124.865 104.126 126.195 103.056C127.425 102.096 128.655 101.086 129.845 100.086C130.095 99.8759 130.335 99.6759 130.585 99.4459C131.525 98.6859 132.445 97.8859 133.355 97.0459C134.955 95.6559 136.515 94.2159 138.045 92.7459C138.865 91.9659 139.665 91.1859 140.425 90.3859C141.945 88.8859 143.435 87.3359 144.875 85.7359C145.015 85.5959 145.165 85.4459 145.285 85.2859C146.355 84.1359 147.375 82.9459 148.375 81.7659C149.585 80.3559 150.715 78.8559 152.125 77.0959H164.855L164.845 77.1059Z" fill="#ABBF63"/>
</g>
<defs>
<clipPath id="clip0_8_1135">
<rect width="183.57" height="133.94" fill="white" transform="translate(0.175293 0.455933)"/>
</clipPath>
</defs>
</svg>
