<svg width="25" height="25" viewBox="0 0 25 25" fill="none" xmlns="http://www.w3.org/2000/svg">
<path d="M0.886704 0.838669C1.30863 0.417269 1.88057 0.180572 2.47689 0.180572C3.07321 0.180572 3.64515 0.417269 4.06707 0.838669L12.228 8.99662L20.389 0.838669C20.5978 0.629843 20.8457 0.464193 21.1186 0.351177C21.3914 0.238161 21.6838 0.179993 21.9792 0.179993C22.2745 0.179993 22.5669 0.238161 22.8398 0.351177C23.1126 0.464193 23.3605 0.629843 23.5693 0.838669C23.7782 1.0475 23.9438 1.29541 24.0568 1.56825C24.1699 1.8411 24.228 2.13353 24.228 2.42885C24.228 2.72418 24.1699 3.01661 24.0568 3.28946C23.9438 3.5623 23.7782 3.81021 23.5693 4.01904L15.4114 12.18L23.5693 20.3409C23.9911 20.7627 24.228 21.3347 24.228 21.9311C24.228 22.5276 23.9911 23.0996 23.5693 23.5213C23.1476 23.9431 22.5756 24.18 21.9792 24.18C21.3827 24.18 20.8107 23.9431 20.389 23.5213L12.228 15.3634L4.06707 23.5213C3.64533 23.9431 3.07332 24.18 2.47689 24.18C1.88045 24.18 1.30845 23.9431 0.886704 23.5213C0.46496 23.0996 0.228027 22.5276 0.228027 21.9311C0.228027 21.3347 0.46496 20.7627 0.886704 20.3409L9.04466 12.18L0.886704 4.01904C0.465303 3.59711 0.228607 3.02518 0.228607 2.42885C0.228607 1.83253 0.465303 1.26059 0.886704 0.838669Z" fill="#F0EAD7"/>
</svg>
