<svg width="171" height="108" viewBox="0 0 171 108" fill="none" xmlns="http://www.w3.org/2000/svg">
<g clip-path="url(#clip0_8_1093)">
<path d="M40.01 107.986C29.46 107.966 19.6 103.896 12.24 96.526C4.87003 89.156 0.830029 79.296 0.860029 68.776C0.920029 47.396 18.41 29.996 39.85 29.996C50.26 29.996 60.04 34.076 67.42 41.456C74.8 48.836 78.86 58.616 78.85 68.986C78.83 90.486 61.45 107.986 40.1 107.986H40.02H40.01ZM40.03 52.486C30.84 52.486 23.33 59.866 23.3 68.936C23.27 78.036 30.68 85.486 39.82 85.546C48.93 85.546 56.3 78.226 56.35 69.226C56.38 64.786 54.69 60.586 51.6 57.416C48.53 54.266 44.46 52.526 40.13 52.496L40.02 45.516V52.496L40.03 52.486Z" fill="#ABC063"/>
<path d="M131.48 107.956C120.91 107.726 111.1 103.466 103.88 95.966C96.64 88.446 92.79 78.506 93.02 67.966C93.48 47.026 110.99 29.986 132.03 29.986H132.84C143.25 30.216 152.95 34.496 160.17 42.076C167.37 49.636 171.21 59.556 170.98 70.006C170.53 90.936 153.17 107.966 132.29 107.966C132.02 107.966 131.75 107.966 131.47 107.966L131.48 107.956ZM132.05 52.486C122.97 52.486 115.53 59.846 115.48 68.886C115.43 78.006 122.85 85.486 132.04 85.556C141.09 85.556 148.43 78.196 148.52 69.146C148.56 64.756 146.89 60.606 143.8 57.446C140.71 54.296 136.6 52.536 132.22 52.486H132.05Z" fill="#ABC063"/>
<path d="M149.92 48.376L149.17 45.916C149.06 45.846 148.95 45.776 148.84 45.716C147.06 44.616 145.37 43.576 143.72 42.836C139.86 41.106 135.94 40.226 132.07 40.226C128.2 40.226 124.18 41.106 120.17 42.856C118.92 43.396 117.71 43.656 116.45 43.656C114.85 43.656 113.28 43.216 111.81 42.336C111.12 41.926 110.41 41.566 109.71 41.196C109.04 40.846 108.37 40.496 107.71 40.126C104.98 38.586 103.35 35.876 103.43 33.046C103.45 32.086 103.45 31.106 103.45 30.126C103.45 27.186 103.44 24.146 103.99 20.936C105.83 10.226 115.1 1.68596 126.05 0.615962C126.92 0.525962 127.81 0.485962 128.69 0.485962C139.11 0.485962 148.38 6.50596 152.3 15.836C154.54 21.156 156.71 26.586 158.82 31.836C159.72 34.096 160.63 36.346 161.54 38.606C162.86 41.816 161.55 44.346 160.92 45.276L158.85 48.366H149.96L149.92 48.376Z" fill="#ABC063"/>
<path d="M13.1701 47.5359L8.14014 44.4359L10.2401 38.8959L16.6201 23.1859C17.5301 20.9559 18.4301 18.7159 19.3201 16.4759C23.2001 6.74593 32.5401 0.455933 43.1101 0.455933C44.1901 0.455933 45.2801 0.525933 46.3501 0.655933C57.9101 2.10593 66.9001 11.1159 68.2301 22.5759C68.5501 25.3859 68.5201 28.0559 68.4901 30.6359C68.4801 31.4759 68.4701 32.3159 68.4701 33.1459C68.4901 36.4759 66.3201 38.8859 64.2801 40.0259C62.6601 40.9259 60.9501 41.8659 59.1101 42.7559C58.0001 43.2859 56.7401 43.5659 55.4601 43.5659C54.1801 43.5659 52.9901 43.3159 51.8901 42.8359C47.9201 41.0759 44.0201 40.2259 39.9501 40.2259C39.3001 40.2259 38.6401 40.2459 37.9701 40.2959C31.9301 40.7059 26.6801 42.7559 21.8901 46.5559C21.7001 46.7059 17.2901 50.0759 17.2901 50.0759L13.1501 47.5359H13.1701Z" fill="#ABC063"/>
<path d="M94.3602 64.696C91.4302 63.046 88.6802 62.246 85.9302 62.246C83.1802 62.246 80.4302 63.046 77.5102 64.696L70.0602 68.906L67.4402 60.766C65.2702 54.036 61.3402 48.826 55.4002 44.826L45.9202 38.426L55.9402 32.916C64.8602 28.016 74.4102 25.396 84.3302 25.136C84.8802 25.126 85.4302 25.116 85.9802 25.116C96.3502 25.116 106.41 27.726 115.89 32.886L126 38.386L116.46 44.806C110.51 48.816 106.58 54.026 104.44 60.726L101.84 68.906L94.3602 64.686V64.696Z" fill="#ABC063"/>
<path d="M39.8101 95.7759C25.0901 95.7659 13.1001 83.7759 13.0701 69.0459C13.0601 61.9059 15.8301 55.1959 20.8801 50.1459C25.9501 45.0759 32.6901 42.2759 39.8701 42.2759C47.0501 42.2759 53.7701 45.0559 58.8001 50.1159C63.8201 55.1659 66.5801 61.9059 66.5701 69.0959C66.5601 83.8059 54.5601 95.7759 39.8201 95.7759H39.8001H39.8101Z" fill="#ABC063"/>
<path d="M132.1 95.776C124.91 95.776 118.17 92.986 113.11 87.926C108.05 82.866 105.26 76.126 105.26 68.936C105.26 54.246 117.26 42.286 132.01 42.266C139.19 42.266 145.9 45.046 150.95 50.106C156.01 55.176 158.78 61.906 158.76 69.086C158.73 83.796 146.77 95.776 132.12 95.776H132.11H132.1Z" fill="#ABC063"/>
<path d="M85.74 53.846C80.23 53.736 75.76 49.166 75.77 43.666C75.77 38.056 80.34 33.506 85.94 33.506H86.14C91.66 33.616 96.14 38.196 96.12 43.716C96.1 49.306 91.54 53.856 85.95 53.856H85.74V53.846Z" fill="#ABC063"/>
<path d="M39.8802 36.976C57.4802 36.996 71.8802 51.396 71.8602 68.986C71.8502 86.586 57.4702 101.046 40.0202 101.016C22.0602 100.976 7.78021 86.6959 7.83021 68.806C7.88021 51.2859 22.2902 36.966 39.8702 36.986L39.8802 36.976ZM39.7702 92.526C52.6002 92.616 63.2502 82.0959 63.3402 69.2659C63.4202 56.2559 53.0302 45.586 40.1902 45.506C27.0202 45.426 16.3702 55.8659 16.3202 68.9059C16.2702 81.8659 26.7702 92.436 39.7802 92.526H39.7702Z" fill="#31663C"/>
<path d="M132.7 36.9759C150.35 37.3459 164.39 52.0859 164.01 69.8459C163.64 87.1459 148.88 101.336 131.64 100.966C113.62 100.576 99.6101 86.0259 100.01 68.1159C100.4 50.6659 115.16 36.6059 132.71 36.9759H132.7ZM131.99 92.5359C144.78 92.6259 155.38 82.1159 155.51 69.2159C155.64 56.2859 145.21 45.6359 132.29 45.5059C119.2 45.3759 108.58 55.7959 108.5 68.8459C108.42 81.8859 118.89 92.4359 131.99 92.5359Z" fill="#31663C"/>
<path d="M155.06 41.316C152.34 39.736 149.58 37.806 146.57 36.456C136.89 32.126 127.1 32.226 117.38 36.456C116.61 36.786 116.07 36.756 115.37 36.336C113.98 35.506 112.51 34.826 111.1 34.036C110.8 33.866 110.39 33.496 110.39 33.236C110.48 29.526 110.22 25.756 110.84 22.136C112.18 14.326 118.97 8.34596 126.69 7.58596C134.95 6.77596 142.7 11.136 145.82 18.566C148.98 26.086 151.97 33.686 155.03 41.246C155.08 41.366 155.11 41.506 155.06 41.336V41.316Z" fill="#31663C"/>
<path d="M16.7102 41.5159C18.5002 37.0959 20.3002 32.6759 22.0902 28.2559C23.3302 25.1859 24.5902 22.1259 25.8102 19.0459C28.9202 11.2359 37.0102 6.51592 45.4802 7.57592C53.7002 8.60592 60.3402 15.1059 61.2902 23.3659C61.6602 26.6059 61.4802 29.9059 61.4902 33.1759C61.4902 33.4359 61.1502 33.7759 60.8802 33.9359C59.3102 34.8159 57.7302 35.6759 56.1002 36.4559C55.7202 36.6359 55.1002 36.6059 54.7002 36.4359C49.2102 34.0059 43.4902 32.9159 37.5002 33.3259C30.0502 33.8359 23.4002 36.4359 17.5602 41.0759C17.3302 41.2559 17.1002 41.4259 16.8602 41.6059C16.8102 41.5759 16.7502 41.5359 16.7002 41.5059L16.7102 41.5159Z" fill="#31663C"/>
<path d="M74.07 58.616C71.43 50.406 66.54 43.926 59.3 39.026C67.23 34.666 75.6001 32.346 84.5101 32.106C94.4201 31.846 103.71 34.196 112.55 39.006C105.3 43.886 100.4 50.366 97.78 58.606C89.86 54.146 82 54.126 74.07 58.606V58.616ZM92.88 43.736C92.92 39.926 89.7901 36.746 85.9801 36.726C82.2101 36.706 79.06 39.786 79 43.546C78.9401 47.366 82.05 50.566 85.85 50.606C89.68 50.646 92.84 47.556 92.88 43.736Z" fill="#31663C"/>
<path d="M39.8801 49.256C50.8501 49.256 59.6101 58.066 59.6001 69.086C59.6001 79.956 50.7101 88.796 39.8201 88.796C28.9601 88.796 20.0801 79.906 20.0601 69.036C20.0401 58.116 28.9201 49.256 39.8801 49.256Z" fill="#31663C"/>
<path d="M112.23 68.946C112.23 58.086 121.09 49.266 132.01 49.256C142.95 49.246 151.8 58.116 151.77 69.076C151.74 79.906 142.88 88.796 132.1 88.806C121.09 88.806 112.23 79.956 112.23 68.946Z" fill="#31663C"/>
<path d="M89.14 43.6759C89.14 45.4559 87.66 46.8959 85.89 46.8559C84.16 46.8259 82.76 45.3859 82.76 43.6559C82.76 41.8859 84.24 40.4359 86.01 40.4659C87.72 40.4959 89.15 41.9559 89.14 43.6659V43.6759Z" fill="#31663C"/>
</g>
<defs>
<clipPath id="clip0_8_1093">
<rect width="170.14" height="107.53" fill="white" transform="translate(0.860107 0.455933)"/>
</clipPath>
</defs>
</svg>
