<svg width="34" height="40" viewBox="0 0 34 40" fill="none" xmlns="http://www.w3.org/2000/svg">
<path d="M4.16016 11.03H29.4802V34.14C29.4802 36.35 27.6902 38.14 25.4802 38.14H8.16016C5.95016 38.14 4.16016 36.35 4.16016 34.14V11.03Z" fill="#F2EDD9" stroke="#966F41" stroke-width="2" stroke-linecap="round" stroke-linejoin="round"/>
<path d="M29.4102 4.91998H4.23017C2.54017 4.91998 1.17017 6.28999 1.17017 7.97998C1.17017 9.66997 2.54017 11.04 4.23017 11.04H29.4102C31.1002 11.04 32.4702 9.66997 32.4702 7.97998C32.4702 6.28999 31.1002 4.91998 29.4102 4.91998Z" fill="#F2EDD9" stroke="#966F41" stroke-width="2" stroke-linecap="round" stroke-linejoin="round"/>
<path d="M19.8803 4.91999C19.8803 3.22999 18.5102 1.85999 16.8203 1.85999C15.1303 1.85999 13.7603 3.22999 13.7603 4.91999C13.7603 6.60998 15.1303 7.97999 16.8203 7.97999C18.5102 7.97999 19.8803 6.60998 19.8803 4.91999Z" fill="#F2EDD9" stroke="#966F41" stroke-width="2" stroke-linecap="round" stroke-linejoin="round"/>
<path d="M10.1902 14.49V33.24" stroke="#966F41" stroke-width="2" stroke-linecap="round" stroke-linejoin="round"/>
<path d="M16.8201 14.49V33.24" stroke="#966F41" stroke-width="2" stroke-linecap="round" stroke-linejoin="round"/>
<path d="M23.4502 14.49V33.24" stroke="#966F41" stroke-width="2" stroke-linecap="round" stroke-linejoin="round"/>
</svg>
