<svg width="31" height="26" viewBox="0 0 31 26" fill="none" xmlns="http://www.w3.org/2000/svg">
<g clip-path="url(#clip0_640_288)">
<path d="M14.0851 25.07C13.8551 25.07 13.6351 25.01 13.4151 24.87C10.2451 23.03 7.66511 21.13 5.51511 19.05C4.98511 18.54 4.52511 18.05 4.11511 17.55C3.72511 17.09 3.39511 16.64 3.10511 16.2C3.03511 16.1 2.40511 15.12 2.40511 15.12C2.40511 15.12 2.24511 14.71 2.17511 14.53C2.01511 14.12 1.85511 13.73 1.73511 13.32C0.985109 10.8 1.29511 8.52996 2.65511 6.55996C3.91511 4.73996 5.72511 3.70996 8.03511 3.49996C8.31511 3.46996 8.59511 3.45996 8.86511 3.45996C9.84511 3.45996 10.7751 3.63996 11.6251 3.98996C12.5951 4.38996 13.4251 5.00996 14.0751 5.82996C15.1451 4.49996 16.5951 3.71996 18.3851 3.51996C18.7351 3.47996 19.0851 3.45996 19.4351 3.45996C20.7751 3.45996 21.9951 3.76996 23.0751 4.38996C25.4651 5.75996 26.7151 7.87996 26.7951 10.71C26.8351 12.03 26.5251 13.37 25.8551 14.79C25.8051 14.9 25.1551 16.05 25.0951 16.14C24.7951 16.58 24.4851 17 24.1551 17.4C23.3651 18.37 22.4351 19.3 21.2151 20.35C19.2951 21.99 17.1751 23.47 14.7251 24.88C14.5051 25.01 14.2851 25.07 14.0651 25.07H14.0851Z" fill="#F0EAD7"/>
<path d="M19.4451 3.95996C20.6251 3.95996 21.7751 4.20996 22.8351 4.81996C25.1051 6.11996 26.2351 8.11996 26.3051 10.72C26.3451 12.08 25.9851 13.36 25.4151 14.58C25.3751 14.67 24.7351 15.8 24.6851 15.87C24.4051 16.29 24.0951 16.69 23.7751 17.08C22.9151 18.13 21.9351 19.08 20.8951 19.97C18.9051 21.67 16.7551 23.14 14.4851 24.44C14.3451 24.52 14.2051 24.56 14.0751 24.56C13.9451 24.56 13.8051 24.52 13.6551 24.43C10.8451 22.8 8.19509 20.95 5.85509 18.68C5.37509 18.22 4.91509 17.73 4.48509 17.22C4.13509 16.81 3.81509 16.37 3.51509 15.92C3.44509 15.82 2.84509 14.89 2.84509 14.89C2.62509 14.3 2.37509 13.75 2.21509 13.18C1.54509 10.94 1.71509 8.79996 3.06509 6.83996C4.26509 5.09996 5.97509 4.17996 8.07509 3.98996C8.33509 3.96996 8.60509 3.94996 8.86509 3.94996C9.74509 3.94996 10.5951 4.09996 11.4251 4.43996C12.4551 4.85996 13.2851 5.53996 13.9151 6.44996C13.9551 6.50996 14.0051 6.56996 14.0551 6.65996C14.1351 6.54996 14.1951 6.46996 14.2551 6.37996C15.2851 4.95996 16.6951 4.19996 18.4251 4.00996C18.7551 3.96996 19.0951 3.94996 19.4151 3.94996M19.4451 2.95996C19.0851 2.95996 18.7151 2.97996 18.3351 3.01996C16.6051 3.20996 15.1851 3.89996 14.0751 5.05996C13.4351 4.38996 12.6851 3.87996 11.8151 3.51996C10.9051 3.14996 9.91509 2.95996 8.87509 2.95996C8.58509 2.95996 8.29509 2.96996 7.99509 2.99996C5.53509 3.22996 3.59509 4.32996 2.25509 6.26996C0.805092 8.37996 0.475092 10.8 1.26509 13.47C1.39509 13.9 1.55509 14.31 1.71509 14.71C1.78509 14.89 1.85509 15.06 1.92509 15.25L1.96509 15.35L2.02509 15.44C2.02509 15.44 2.63509 16.38 2.70509 16.48C2.99509 16.93 3.34509 17.39 3.74509 17.87C4.16509 18.38 4.64509 18.88 5.18509 19.41C7.35509 21.52 9.96509 23.44 13.1751 25.31C13.4751 25.48 13.7851 25.57 14.0951 25.57C14.4051 25.57 14.7051 25.48 15.0051 25.31C17.4851 23.88 19.6251 22.39 21.5651 20.73C22.8051 19.67 23.7551 18.71 24.5651 17.72C24.9051 17.32 25.2251 16.88 25.5251 16.44C25.6051 16.32 26.2551 15.16 26.3251 15.03C27.0351 13.52 27.3551 12.11 27.3151 10.71C27.2351 7.69996 25.8951 5.42996 23.3451 3.96996C22.1951 3.30996 20.8851 2.96996 19.4551 2.96996L19.4451 2.95996Z" fill="#967042"/>
<path d="M24.505 11.2502C21.665 11.2502 19.345 8.94018 19.345 6.09018C19.345 3.24018 21.655 0.930176 24.505 0.930176C27.355 0.930176 29.665 3.24018 29.665 6.09018C29.665 8.94018 27.355 11.2502 24.505 11.2502Z" fill="#F0EAD7"/>
<path d="M24.505 1.43018C27.075 1.43018 29.165 3.52018 29.165 6.09018C29.165 8.66018 27.075 10.7502 24.505 10.7502C21.935 10.7502 19.845 8.66018 19.845 6.09018C19.845 3.52018 21.935 1.43018 24.505 1.43018ZM24.505 0.430176C21.385 0.430176 18.845 2.97018 18.845 6.09018C18.845 9.21018 21.385 11.7502 24.505 11.7502C27.625 11.7502 30.165 9.21018 30.165 6.09018C30.165 2.97018 27.625 0.430176 24.505 0.430176Z" fill="#966F41"/>
<path d="M23.1451 9.86006V7.43006H20.7151V4.75006H23.1451V2.31006H25.8551V4.75006H28.2951V7.43006H25.8551V9.86006H23.1451Z" fill="#966F41"/>
<path d="M25.3551 2.81006V5.24006H27.7851V6.93006H25.3551V9.36006H23.6351V6.93006H21.2051V5.24006H23.6351V2.81006H25.3551ZM26.3551 1.81006H22.6351V4.24006H20.2051V7.93006H22.6351V10.3601H26.3551V7.93006H28.7851V4.24006H26.3551V1.81006Z" fill="#F0EAD7"/>
</g>
<defs>
<clipPath id="clip0_640_288">
<rect width="29.31" height="25.14" fill="white" transform="translate(0.844971 0.430176)"/>
</clipPath>
</defs>
</svg>
