<svg width="16" height="16" viewBox="0 0 16 16" fill="none" xmlns="http://www.w3.org/2000/svg">
<path d="M0.288987 13.8644C-0.101537 14.255 -0.101537 14.8881 0.288987 15.2786C0.679511 15.6692 1.31268 15.6692 1.7032 15.2786L0.288987 13.8644ZM15.2632 1.30444C15.2632 0.752159 14.8155 0.304443 14.2632 0.304443L5.26318 0.304443C4.7109 0.304443 4.26318 0.752159 4.26318 1.30444C4.26318 1.85673 4.7109 2.30444 5.26318 2.30444H13.2632V10.3044C13.2632 10.8567 13.7109 11.3044 14.2632 11.3044C14.8155 11.3044 15.2632 10.8567 15.2632 10.3044L15.2632 1.30444ZM1.7032 15.2786L14.9703 2.01155L13.5561 0.597336L0.288987 13.8644L1.7032 15.2786Z" fill="#F2EDD9"/>
</svg>
