<svg width="16" height="16" viewBox="0 0 16 16" fill="none" xmlns="http://www.w3.org/2000/svg">
<path d="M7.56911 12.4151L3.40911 15.3051C3.13911 15.4951 2.77911 15.2351 2.86911 14.9151L4.3391 10.0651C4.3791 9.92508 4.33911 9.77508 4.21911 9.68508L0.179109 6.62508C-0.0908915 6.42508 0.0491076 6.00508 0.389108 5.99508L5.44911 5.89508C5.59911 5.89508 5.7291 5.79508 5.7691 5.65508L7.42911 0.875078C7.53911 0.565078 7.9791 0.565078 8.0891 0.875078L9.74911 5.65508C9.79911 5.79508 9.92911 5.88508 10.0691 5.89508L15.1291 5.99508C15.4591 5.99508 15.5991 6.42508 15.3391 6.62508L11.2991 9.68508C11.1791 9.77508 11.1291 9.92508 11.1791 10.0651L12.6491 14.9151C12.7491 15.2351 12.3891 15.4951 12.1091 15.3051L7.94911 12.4151C7.82911 12.3351 7.66911 12.3351 7.54911 12.4151H7.56911Z" fill="#D7B987"/>
</svg>
