<svg width="16" height="16" viewBox="0 0 16 16" fill="none" xmlns="http://www.w3.org/2000/svg">
<path d="M8.03005 12.4151L3.87005 15.3051C3.60005 15.4951 3.24005 15.2351 3.33005 14.9151L4.80005 10.0651C4.84005 9.92508 4.80005 9.77508 4.68005 9.68508L0.640046 6.62508C0.370046 6.42508 0.510046 6.00508 0.850046 5.99508L5.91005 5.89508C6.06005 5.89508 6.19005 5.79508 6.23005 5.65508L7.90005 0.875078C8.01005 0.565078 8.45005 0.565078 8.56005 0.875078L10.22 5.65508C10.27 5.79508 10.4 5.88508 10.54 5.89508L15.6 5.99508C15.93 5.99508 16.07 6.42508 15.81 6.62508L11.77 9.68508C11.65 9.77508 11.6 9.92508 11.65 10.0651L13.12 14.9151C13.22 15.2351 12.86 15.4951 12.58 15.3051L8.42005 12.4151C8.30005 12.3351 8.14005 12.3351 8.02005 12.4151H8.03005Z" fill="#966F41"/>
</svg>
