<svg width="12" height="20" viewBox="0 0 12 20" fill="none" xmlns="http://www.w3.org/2000/svg">
<path d="M10.7297 6.63264C10.2966 6.74485 9.9321 6.60853 9.62235 6.29878C8.89341 5.56984 8.16355 4.84183 7.43276 4.11382C7.35301 4.035 7.26861 3.9608 7.12116 3.82355V4.29188C7.12116 9.09303 7.12208 13.8951 7.12116 18.6972C7.12116 19.3649 6.85963 19.7767 6.3375 19.9464C5.66699 20.1634 4.96032 19.6969 4.90282 18.9958C4.89169 18.8585 4.8954 18.7185 4.8954 18.5803C4.89447 13.8126 4.89447 9.04573 4.89447 4.27797V3.90516C4.86665 3.8931 4.83883 3.88105 4.81101 3.86806C4.01066 4.67026 3.20846 5.47061 2.4109 6.27559C2.11413 6.57421 1.76636 6.73002 1.34439 6.65119C0.52086 6.49817 0.161957 5.51605 0.685937 4.86409C0.743436 4.79175 0.811136 4.72776 0.876982 4.66192C2.27828 3.26247 3.67958 1.86303 5.08273 0.464511C5.70409 -0.154063 6.30319 -0.154991 6.92269 0.462656C8.34161 1.87694 9.76424 3.28844 11.1767 4.71014C11.8453 5.38251 11.6023 6.40635 10.7297 6.63264Z" fill="#966F41"/>
</svg>
