<svg width="31" height="22" viewBox="0 0 31 22" fill="none" xmlns="http://www.w3.org/2000/svg">
<path d="M0.3479 20.8801C0.3479 21.1701 0.4679 21.4501 0.6679 21.6501C0.8779 21.8601 1.1479 21.9701 1.4379 21.9701L29.5579 21.9901C29.6479 21.9901 29.7279 21.9801 29.8079 21.9601C30.2879 21.8501 30.6479 21.4101 30.6479 20.8901V1.48012C30.6579 1.19012 30.5479 0.910115 30.3379 0.710115C30.1279 0.500115 29.8579 0.390116 29.5679 0.390116L1.4479 0.370117C1.1579 0.370117 0.8779 0.480117 0.6779 0.690117C0.4679 0.900117 0.357901 1.17012 0.357901 1.46012V20.8701L0.3479 20.8801ZM2.5479 3.97012L6.4879 7.62012L2.5479 11.3401V3.97012ZM28.4779 11.3601L24.5379 7.63012L28.4779 3.99012V11.3601ZM15.5079 13.0001L4.2479 2.57012L26.7779 2.59012L15.5079 13.0101V13.0001ZM2.5379 19.7801V14.3601L8.0979 9.11012L14.7679 15.2901C15.0479 15.5501 15.4179 15.6301 15.7679 15.5501C15.9479 15.5101 16.1179 15.4201 16.2579 15.2901L22.9379 9.12012L28.4879 14.3801V19.8001L2.5579 19.7801H2.5379Z" fill="#F2EDD9"/>
</svg>
