<svg width="38" height="36" viewBox="0 0 38 36" fill="none" xmlns="http://www.w3.org/2000/svg">
<path d="M33.2577 12.6501H29.8277V1.84007C29.8277 1.27007 29.3677 0.820068 28.8077 0.820068H9.47768C8.90768 0.820068 8.45768 1.28007 8.45768 1.84007V12.6501H5.01768C2.73768 12.6501 0.867676 14.5201 0.867676 16.8101V27.7901C0.867676 30.0801 2.73768 31.9501 5.01768 31.9501H8.26768V34.5201C8.26768 35.0901 8.72768 35.5401 9.28768 35.5401H28.9977C29.5677 35.5401 30.0177 35.0801 30.0177 34.5201V31.9501H33.2477C35.5377 31.9501 37.4077 30.0801 37.4077 27.7901V16.8101C37.4077 14.5201 35.5377 12.6501 33.2477 12.6501H33.2577ZM10.5077 2.86007H27.7877V12.6501H10.5077V2.86007ZM27.9777 33.5001H10.2977V22.6101H27.9777V33.5001ZM35.3777 27.7901C35.3777 28.9601 34.4377 29.9001 33.2677 29.9001H30.0377V21.5801C30.0377 21.0101 29.5777 20.5601 29.0177 20.5601H9.30768C8.73768 20.5601 8.28768 21.0201 8.28768 21.5801V29.9001H5.03768C3.87768 29.9001 2.93768 28.9601 2.93768 27.7901V19.5201H35.3977V27.7901H35.3777ZM35.3777 17.4901H2.91768V16.8101C2.91768 15.6401 3.85768 14.7001 5.01768 14.7001H33.2577C34.4377 14.7001 35.3677 15.6401 35.3677 16.8101V17.4901H35.3777Z" fill="#F2EDD9"/>
<path d="M33.8676 16.0901C33.8676 16.3501 33.7676 16.6201 33.5776 16.8101C33.3876 17.0001 33.1176 17.1101 32.8576 17.1101C32.5776 17.1101 32.3176 17.0001 32.1276 16.8101C31.9476 16.6201 31.8376 16.3501 31.8376 16.0901C31.8376 15.8101 31.9476 15.5501 32.1276 15.3701C32.3176 15.1801 32.5876 15.0701 32.8576 15.0701C33.1276 15.0701 33.3876 15.1801 33.5776 15.3701C33.7676 15.5501 33.8676 15.8101 33.8676 16.0901Z" fill="#F2EDD9"/>
<path d="M25.9477 25.8701C25.9477 26.4401 25.4877 26.8901 24.9277 26.8901H12.9577C12.4077 26.8901 11.9377 26.4301 11.9377 25.8701C11.9377 25.3101 12.4077 24.8501 12.9577 24.8501H24.9277C25.4977 24.8501 25.9477 25.3101 25.9477 25.8701Z" fill="#F2EDD9"/>
<path d="M19.5777 30.23C19.5777 30.8 19.1177 31.25 18.5577 31.25H12.9577C12.4077 31.25 11.9377 30.79 11.9377 30.23C11.9377 29.67 12.4077 29.21 12.9577 29.21H18.5577C19.1277 29.21 19.5777 29.67 19.5777 30.23Z" fill="#F2EDD9"/>
</svg>
