<svg width="123" height="74" viewBox="0 0 123 74" fill="none" xmlns="http://www.w3.org/2000/svg">
<path d="M62.7352 6.49826L69.1408 6.51554L63.9685 10.2899L65.9317 16.38L60.7359 12.6386L55.54 16.38L57.5032 10.2899L52.3277 6.51554L58.7365 6.49826L60.7374 0.423828L62.7352 6.49826ZM24.5314 34.5861L32.1341 49.7494H29.227L27.7468 46.7773H21.349L19.8515 49.7494H16.9444L24.5314 34.5861ZM26.438 44.1789L24.5314 40.392L22.6437 44.1789H26.4364H26.438ZM75.6675 49.7494H72.7573L80.3443 34.5861L87.947 49.7494H85.04L83.5424 46.7773H77.1462L75.6675 49.7494ZM78.4378 44.1789H82.232L80.3443 40.392L78.4378 44.1789ZM36.3909 49.7478H38.9833V40.6448L49.622 50.4622V35.1999H47.0296V44.3422L36.3909 34.4887V49.7494V49.7478ZM65.9538 44.5133L55.153 34.4887V49.7478H57.7486V40.4313L68.5478 50.4637V35.2015H65.9553V44.5133H65.9538ZM106.929 34.4871L99.429 41.4502L91.9332 34.4871V49.7478H94.5241V40.4328L99.429 44.9938L104.334 40.4328V49.7478H106.929V34.4871ZM116.852 73.2056V61.253H123V58.6624H108.111V61.253H114.257V73.2119L116.852 73.204V73.2056ZM75.4253 63.8922L80.3302 68.4531L85.235 63.8922V73.2072H87.8275V57.9465L80.3302 64.9096L72.8329 57.9465V73.2072H75.4253V63.8922ZM104.785 61.253L104.793 58.6624H93.36V73.2087H105.147L105.141 70.6182H95.9556V67.2301H103.359L103.354 64.6427H95.9556V61.2546H104.785V61.253ZM24.997 58.4159C29.3592 58.4159 32.4629 62.1714 32.4629 65.8861C32.4629 69.6008 29.4284 73.4238 24.9781 73.4238C20.5279 73.4238 17.4604 69.6197 17.4604 65.9034C17.4604 62.1871 20.325 58.4144 24.997 58.4144M24.997 60.9939C22.5116 61.0567 20.0638 62.9627 20.0638 65.9018C20.0638 68.3511 22.0727 70.8411 24.8948 70.8411C28.0582 70.8411 29.8814 68.0276 29.8814 65.883C29.8814 62.936 27.2434 60.9924 24.997 60.9924M47.2105 58.6577V66.6335C47.2105 68.1611 46.0275 70.8333 43.0953 70.8333H43.0167C40.8427 70.8333 38.9691 68.9398 38.9691 66.6335V58.6577H36.3924V66.6335C36.3924 70.2963 39.3168 73.4238 43.0906 73.4238H43.1645C47.5865 73.4238 49.2571 69.3056 49.2854 69.2334C49.9335 67.6744 49.7856 67.2662 49.7856 58.6577H47.2121H47.2105ZM7.5248 60.9986C9.52891 61.0065 10.6238 62.1762 11.0406 62.5404L13.0416 60.8699C11.8681 59.7866 10.3123 58.4222 7.5248 58.4081C5.42316 58.4159 3.68176 59.1491 2.20464 60.6422C-0.696123 63.5907 -0.140825 67.0998 0.563915 68.7844C1.12551 70.1064 3.19883 73.4238 7.51064 73.4238H7.51851C11.1917 73.4238 13.1879 70.7328 13.2256 70.6841C13.2508 70.1786 13.2445 71.0123 13.2445 64.9692H6.95535V67.3996H10.9211V69.3637C9.63745 70.6449 8.32235 70.8317 7.42727 70.8317C4.042 70.8317 1.64305 67.1924 2.94871 64.068C3.1013 63.7022 4.35032 61.0081 7.52323 60.9971M68.1718 63.5028C68.1718 60.8008 65.9679 58.6577 63.02 58.6577H55.153V73.2087H57.6542V61.1274H62.9083C64.6969 61.1274 65.5857 62.2123 65.5857 63.5028C65.5857 66.2378 62.3451 65.9552 59.9603 65.9552L60.3929 66.5236L65.2066 73.204H68.2914L64.7488 68.0418C66.3801 67.8031 68.1734 65.8971 68.1734 63.5044" fill="white"/>
</svg>
